<svg width="449" height="457" viewBox="0 0 449 457" fill="none" xmlns="http://www.w3.org/2000/svg">
<path d="M113.262 438.542C112.767 438.565 112.276 438.433 111.857 438.165C111.438 437.897 111.111 437.505 110.92 437.043C110.728 436.581 110.682 436.07 110.788 435.581C110.893 435.091 111.145 434.646 111.509 434.306C111.57 434.061 111.614 433.885 111.675 433.64C111.201 432.423 110.378 431.377 109.311 430.636C108.245 429.895 106.984 429.492 105.689 429.48C104.395 429.468 103.126 429.846 102.046 430.567C100.966 431.288 100.124 432.318 99.6271 433.525C96.7604 440.305 93.0502 447.323 94.8954 454.789C82.7076 428.693 86.8524 396.231 104.864 373.914C109.843 371.143 113.878 366.22 114.929 360.504C112.465 361.347 109.393 359.322 111.245 356.7C112.048 355.698 112.859 354.704 113.662 353.702C104.302 343.631 93.1501 359.459 103.453 373.051C100.082 377.32 97.1631 381.933 94.7424 386.816C95.3014 381.631 94.6342 376.387 92.7956 371.514C90.9323 366.973 87.4397 363.148 84.3641 359.222C80.6245 354.438 72.9281 356.645 72.4249 362.716C75.876 363.862 76.3243 368.898 72.3767 369.587C73.4107 380.881 80.7135 391.259 90.7716 396.212C87.0573 406.741 85.6069 417.95 86.5171 429.09C84.7417 416.07 70.9087 412.911 61.2401 407.736C60.6247 407.338 59.9078 407.128 59.1768 407.134C58.4458 407.14 57.7323 407.361 57.1233 407.77C56.5143 408.178 56.0362 408.757 55.7473 409.435C55.4584 410.114 55.3712 410.863 55.4963 411.59C56.8308 412.139 58.108 412.819 59.3093 413.623C59.8722 414.005 60.3042 414.554 60.5462 415.194C60.7882 415.834 60.8283 416.534 60.6611 417.198C60.4938 417.862 60.1273 418.458 59.6118 418.903C59.0964 419.349 58.4572 419.622 57.7819 419.686C62.6555 431.872 75.2557 440.056 88.1969 440.01C89.4405 445.469 91.2424 450.784 93.5736 455.868H112.781C112.85 455.652 112.912 455.429 112.974 455.214C111.196 455.327 109.411 455.219 107.659 454.894C112.363 449.267 116 446.397 113.263 438.542L113.262 438.542Z" fill="#F2F2F2"/>
<path d="M284.499 438.542C284.995 438.565 285.485 438.433 285.904 438.165C286.323 437.897 286.65 437.505 286.842 437.043C287.033 436.581 287.079 436.07 286.974 435.581C286.868 435.091 286.616 434.646 286.252 434.306C286.191 434.061 286.147 433.885 286.086 433.64C286.561 432.423 287.384 431.377 288.45 430.636C289.516 429.895 290.778 429.492 292.072 429.48C293.366 429.468 294.635 429.846 295.715 430.567C296.795 431.288 297.637 432.318 298.134 433.525C301.001 440.305 304.711 447.323 302.866 454.789C315.054 428.693 310.909 396.231 292.897 373.914C287.918 371.143 283.883 366.22 282.832 360.504C285.296 361.347 288.369 359.322 286.516 356.7C285.713 355.698 284.902 354.704 284.099 353.702C293.459 343.631 304.611 359.459 294.309 373.051C297.679 377.32 300.598 381.933 303.019 386.816C302.46 381.631 303.127 376.387 304.966 371.514C306.829 366.973 310.322 363.148 313.397 359.222C317.137 354.438 324.833 356.645 325.336 362.716C321.885 363.862 321.437 368.898 325.385 369.587C324.351 380.881 317.048 391.259 306.99 396.212C310.704 406.741 312.154 417.95 311.244 429.09C313.02 416.07 326.853 412.911 336.521 407.736C337.137 407.338 337.853 407.128 338.585 407.134C339.316 407.14 340.029 407.361 340.638 407.77C341.247 408.178 341.725 408.757 342.014 409.435C342.303 410.114 342.39 410.863 342.265 411.59C340.931 412.139 339.653 412.819 338.452 413.623C337.889 414.005 337.457 414.554 337.215 415.194C336.973 415.834 336.933 416.534 337.1 417.198C337.268 417.862 337.634 418.458 338.149 418.903C338.665 419.349 339.304 419.622 339.979 419.686C335.106 431.873 322.506 440.056 309.564 440.01C308.321 445.469 306.519 450.784 304.188 455.868H284.98C284.912 455.652 284.85 455.429 284.788 455.214C286.565 455.327 288.35 455.219 290.102 454.894C285.399 449.267 281.761 446.397 284.499 438.542L284.499 438.542Z" fill="#F2F2F2"/>
<path d="M291.621 441.423L283.349 443.324L272.154 411.995L284.362 409.188L291.621 441.423Z" fill="#FFB6B6"/>
<path d="M293.876 450.074L268.439 455.921L268.366 455.596C267.769 452.943 268.239 450.159 269.673 447.856C271.107 445.554 273.388 443.921 276.014 443.317L276.014 443.317L279.858 438.688L289.33 440.256L291.55 439.746L293.876 450.074Z" fill="#2F2E41"/>
<path d="M425.057 288.714L429.604 295.949L404.147 317.114L397.435 306.435L425.057 288.714Z" fill="#FFB6B6"/>
<path d="M432.367 283.665L446.352 305.913L446.073 306.092C443.8 307.55 441.046 308.037 438.418 307.444C435.79 306.852 433.502 305.229 432.059 302.932L432.058 302.932L426.452 300.826L424.738 291.285L423.517 289.343L432.367 283.665Z" fill="#2F2E41"/>
<path d="M161.384 211.363L159.341 199.399L190.402 185.229L197.109 173.231C196.893 172.178 196.968 171.085 197.328 170.073C197.687 169.061 198.317 168.169 199.147 167.495C199.977 166.822 200.975 166.393 202.03 166.257C203.086 166.121 204.159 166.282 205.13 166.723C206.101 167.163 206.932 167.867 207.532 168.755C208.132 169.643 208.477 170.682 208.53 171.756C208.582 172.83 208.34 173.898 207.83 174.841C207.319 175.785 206.56 176.568 205.637 177.103L194.603 194.338L161.384 211.363Z" fill="#A0616A"/>
<path d="M151.943 201.583L165.93 194.364L169.633 208.41L159.917 215.686L151.943 201.583Z" fill="#F46036"/>
<path d="M120.556 440.336L129.013 440.335L133.037 407.378L120.554 407.379L120.556 440.336Z" fill="#A0616A"/>
<path d="M131.828 441.104V435.312L129.604 435.449L120.554 435.99L118.459 436.12L116.858 455.52L116.772 456.561H122.777L122.97 455.528L123.842 450.833L126.094 455.528L126.587 456.561H142.508C143.455 456.554 144.362 456.171 145.032 455.494C145.701 454.816 146.078 453.899 146.083 452.942C146.755 449.771 133.515 442.917 131.828 441.104Z" fill="#2F2E41"/>
<path d="M20.1654 309.542L18.194 317.851L48.978 329.488L51.8874 317.225L20.1654 309.542Z" fill="#A0616A"/>
<path d="M17.4665 320.436L23.042 321.787L23.4283 319.571L25.0171 310.553L25.3804 308.464L7.08084 302.368L6.09975 302.041L4.69959 307.941L5.6487 308.371L9.96411 310.323L4.92029 311.441L3.81114 311.684L0.0990649 327.326C-0.115998 328.258 0.0416005 329.238 0.537668 330.054C1.03374 330.869 1.8282 331.454 2.74854 331.681C5.64376 333.081 15.3282 321.671 17.4665 320.436Z" fill="#2F2E41"/>
<path d="M133.633 227.039L122.747 221.897L101.038 248.439L87.8154 251.818C86.867 251.33 85.8036 251.116 84.7424 251.2C83.6813 251.284 82.6637 251.662 81.8022 252.294C80.9407 252.925 80.2687 253.785 79.8605 254.778C79.4523 255.771 79.3237 256.859 79.489 257.922C79.6543 258.984 80.1071 259.979 80.7972 260.798C81.4874 261.617 82.3881 262.227 83.3998 262.561C84.4116 262.895 85.495 262.94 86.5305 262.691C87.566 262.442 88.5132 261.908 89.2674 261.149L108.63 254.933L133.633 227.039Z" fill="#A0616A"/>
<path d="M287.964 128.784C285.657 128.784 283.401 128.093 281.482 126.797C279.564 125.502 278.068 123.661 277.185 121.508C276.302 119.354 276.071 116.984 276.522 114.697C276.972 112.411 278.083 110.311 279.714 108.662C281.346 107.014 283.425 105.891 285.688 105.436C287.951 104.982 290.297 105.215 292.429 106.107C294.561 106.999 296.383 108.51 297.665 110.448C298.947 112.387 299.631 114.666 299.631 116.997C299.627 120.122 298.397 123.118 296.21 125.328C294.023 127.537 291.057 128.78 287.964 128.784ZM287.964 106.563C285.921 106.563 283.925 107.175 282.226 108.321C280.528 109.468 279.204 111.097 278.422 113.004C277.641 114.911 277.436 117.009 277.835 119.033C278.233 121.057 279.217 122.916 280.661 124.375C282.106 125.834 283.946 126.828 285.949 127.231C287.953 127.633 290.029 127.427 291.916 126.637C293.804 125.847 295.417 124.51 296.551 122.794C297.686 121.078 298.292 119.061 298.292 116.997C298.289 114.231 297.2 111.578 295.264 109.622C293.327 107.666 290.702 106.566 287.964 106.563Z" fill="#E6E6E6"/>
<path d="M287.141 121.437C287.117 121.437 287.094 121.436 287.07 121.435C286.863 121.425 286.661 121.37 286.477 121.273C286.293 121.176 286.132 121.041 286.004 120.875L284.167 118.488C284.05 118.338 283.965 118.165 283.915 117.981C283.865 117.797 283.851 117.605 283.874 117.415C283.898 117.226 283.958 117.043 284.051 116.877C284.145 116.711 284.27 116.565 284.419 116.448L284.485 116.396C284.634 116.279 284.805 116.192 284.987 116.142C285.169 116.091 285.359 116.077 285.547 116.101C285.735 116.124 285.916 116.185 286.08 116.28C286.244 116.374 286.389 116.5 286.505 116.651C286.597 116.772 286.715 116.87 286.849 116.941C286.983 117.011 287.131 117.051 287.281 117.059C287.432 117.066 287.583 117.04 287.723 116.984C287.863 116.927 287.99 116.84 288.094 116.729L291.825 112.749C292.088 112.47 292.45 112.307 292.831 112.296C293.212 112.286 293.582 112.429 293.86 112.693L293.921 112.752C294.058 112.884 294.168 113.041 294.245 113.215C294.322 113.39 294.365 113.578 294.37 113.768C294.375 113.959 294.343 114.149 294.275 114.328C294.208 114.506 294.106 114.669 293.976 114.807L288.185 120.983C288.051 121.126 287.889 121.241 287.709 121.319C287.53 121.397 287.336 121.437 287.141 121.437Z" fill="#E6E6E6"/>
<path d="M229.723 271.49C227.416 271.49 225.16 270.799 223.241 269.504C221.323 268.208 219.827 266.367 218.944 264.214C218.061 262.06 217.83 259.69 218.281 257.403C218.731 255.117 219.842 253.017 221.473 251.368C223.105 249.72 225.184 248.597 227.447 248.143C229.71 247.688 232.056 247.921 234.188 248.813C236.32 249.705 238.142 251.216 239.424 253.155C240.706 255.093 241.39 257.372 241.39 259.703C241.386 262.828 240.156 265.824 237.969 268.034C235.782 270.244 232.816 271.486 229.723 271.49ZM229.723 249.269C227.68 249.269 225.684 249.881 223.985 251.027C222.287 252.174 220.963 253.803 220.181 255.71C219.4 257.617 219.195 259.715 219.594 261.739C219.992 263.763 220.976 265.622 222.42 267.081C223.865 268.54 225.705 269.534 227.708 269.937C229.712 270.339 231.788 270.133 233.675 269.343C235.563 268.553 237.176 267.216 238.31 265.5C239.445 263.784 240.051 261.767 240.051 259.703C240.048 256.937 238.959 254.284 237.023 252.328C235.086 250.372 232.461 249.272 229.723 249.269Z" fill="#E6E6E6"/>
<path d="M228.9 264.144C228.876 264.144 228.853 264.143 228.829 264.142C228.622 264.132 228.42 264.077 228.236 263.98C228.052 263.884 227.891 263.748 227.763 263.582L225.926 261.195C225.809 261.045 225.724 260.872 225.674 260.688C225.624 260.504 225.61 260.312 225.633 260.122C225.657 259.933 225.717 259.75 225.81 259.584C225.904 259.418 226.029 259.272 226.178 259.155L226.244 259.103C226.393 258.986 226.564 258.899 226.746 258.849C226.928 258.798 227.118 258.784 227.306 258.808C227.494 258.832 227.675 258.892 227.839 258.987C228.003 259.081 228.148 259.207 228.264 259.358C228.356 259.479 228.474 259.577 228.608 259.648C228.742 259.718 228.89 259.758 229.04 259.766C229.191 259.773 229.342 259.748 229.482 259.691C229.622 259.634 229.749 259.547 229.853 259.436L233.584 255.456C233.847 255.177 234.209 255.014 234.59 255.003C234.971 254.993 235.341 255.136 235.619 255.4L235.68 255.459C235.817 255.591 235.927 255.748 236.004 255.922C236.081 256.097 236.124 256.285 236.129 256.475C236.134 256.666 236.102 256.856 236.034 257.035C235.967 257.213 235.865 257.376 235.735 257.515L229.944 263.69C229.81 263.833 229.648 263.948 229.468 264.026C229.289 264.104 229.095 264.144 228.9 264.144Z" fill="#E6E6E6"/>
<path d="M101.861 112.551C99.5532 112.551 97.2975 111.86 95.3789 110.565C93.4603 109.27 91.965 107.429 91.0819 105.275C90.1989 103.121 89.9679 100.751 90.418 98.465C90.8682 96.1785 91.9793 94.0783 93.611 92.4299C95.2426 90.7814 97.3214 89.6588 99.5846 89.204C101.848 88.7492 104.193 88.9826 106.325 89.8748C108.457 90.7669 110.279 92.2777 111.561 94.216C112.843 96.1544 113.527 98.4333 113.527 100.765C113.524 103.89 112.294 106.886 110.106 109.095C107.919 111.305 104.954 112.548 101.861 112.551ZM101.861 90.3302C99.818 90.3302 97.8212 90.9422 96.1228 92.0887C94.4243 93.2353 93.1006 94.8649 92.3189 96.7715C91.5372 98.6781 91.3327 100.776 91.7312 102.8C92.1297 104.824 93.1133 106.683 94.5577 108.143C96.0021 109.602 97.8423 110.596 99.8458 110.998C101.849 111.401 103.926 111.194 105.813 110.405C107.7 109.615 109.313 108.277 110.448 106.561C111.583 104.846 112.189 102.828 112.189 100.765C112.185 97.9981 111.096 95.346 109.16 93.3898C107.224 91.4337 104.599 90.3334 101.861 90.3302Z" fill="#E6E6E6"/>
<path d="M101.037 105.205C101.014 105.205 100.99 105.205 100.967 105.204C100.76 105.193 100.557 105.138 100.373 105.042C100.189 104.945 100.028 104.809 99.9009 104.644L98.0631 102.257C97.947 102.106 97.8614 101.934 97.8113 101.75C97.7612 101.566 97.7474 101.373 97.7708 101.184C97.7942 100.995 97.8544 100.812 97.9478 100.646C98.0412 100.48 98.1661 100.334 98.3152 100.217L98.3814 100.165C98.5305 100.047 98.7011 99.9609 98.8833 99.9102C99.0656 99.8595 99.2559 99.8457 99.4435 99.8693C99.6311 99.893 99.8122 99.9538 99.9765 100.048C100.141 100.143 100.285 100.269 100.401 100.42C100.494 100.54 100.611 100.639 100.745 100.709C100.88 100.78 101.027 100.82 101.178 100.827C101.329 100.835 101.48 100.809 101.62 100.752C101.76 100.695 101.886 100.609 101.99 100.498L105.722 96.5178C105.985 96.2383 106.346 96.0755 106.728 96.065C107.109 96.0545 107.479 96.1973 107.756 96.462L107.817 96.5209C107.955 96.6522 108.065 96.8095 108.142 96.9838C108.219 97.1582 108.261 97.3461 108.266 97.537C108.271 97.7278 108.239 97.9178 108.172 98.0961C108.104 98.2744 108.002 98.4375 107.872 98.576L102.081 104.751C101.947 104.895 101.785 105.009 101.606 105.087C101.426 105.165 101.233 105.206 101.037 105.205Z" fill="#E6E6E6"/>
<path d="M195.265 315.315C168.211 315.315 137.119 284.984 109.611 299.395C26.323 343.028 37.788 270.015 13.8601 242.861L14.6456 241.27C41.0474 265.187 74.0109 284.646 109.973 297.544C142.471 309.2 175.213 314.601 204.647 313.176L204.698 315.089C201.589 315.241 198.445 315.316 195.265 315.315Z" fill="#F2F2F2"/>
<path d="M223.469 229.76C220.883 231.5 218.237 227.358 220.872 225.695C223.457 223.955 226.104 228.097 223.469 229.76Z" fill="#E6E6E6"/>
<path opacity="0.3" d="M234.343 123.64L276.246 0L230.234 122.16C230.007 122.45 229.851 122.79 229.78 123.153C229.708 123.516 229.724 123.891 229.825 124.247C229.926 124.603 230.109 124.929 230.36 125.199C230.61 125.469 230.921 125.674 231.266 125.799C231.611 125.923 231.98 125.962 232.343 125.913C232.706 125.865 233.053 125.729 233.354 125.518C233.654 125.307 233.901 125.027 234.073 124.7C234.245 124.373 234.338 124.01 234.343 123.64H234.343Z" fill="#F0F0F0"/>
<path d="M192.048 274.27C196.005 274.27 199.213 271.029 199.213 267.031C199.213 263.034 196.005 259.793 192.048 259.793C188.091 259.793 184.884 263.034 184.884 267.031C184.884 271.029 188.091 274.27 192.048 274.27Z" fill="#F2F2F2"/>
<path d="M122.658 269.792C122.658 269.792 104.797 281.542 109.52 289.35C109.683 289.619 88.185 318.305 88.185 318.305L47.6024 315.702L46.1726 329.425L82.3021 339.997C82.3021 339.997 91.1408 346.557 97.9689 339.329C104.797 332.101 127.541 309.966 127.541 309.966L128.638 354.656L117.22 416.583L134.268 415.491L150.86 353.362L156.984 282.987L122.658 269.792Z" fill="#2F2E41"/>
<path d="M135.38 199.271L127.87 205.022L119.309 223.482L127.541 234.777C127.541 234.777 134.465 246.901 123.381 258.643C112.298 270.385 103.787 282.925 112.658 282.478C121.529 282.03 157.46 300.493 157.696 285.367C157.933 270.24 158.411 258.643 158.411 258.643L167.832 234.504C167.832 234.504 173.444 220.104 169.504 215.793C165.563 211.483 160.287 205.974 160.287 205.974L150.693 196.281H142.03L135.38 199.271Z" fill="#F46036"/>
<path d="M149.401 163.804C166.251 173.491 152.418 199.051 135.254 189.949C118.405 180.262 132.238 154.703 149.401 163.804Z" fill="#A0616A"/>
<path d="M158.411 169.174C157.231 170.726 154.764 169.998 149.933 171.105C149.944 169.451 149.755 167.802 149.37 166.194C149.011 168.185 148.223 170.072 147.063 171.721C142.868 172.191 148.01 185.065 145.863 194.531C143.096 174.562 137.275 179.793 140.216 183.754C142.098 186.29 140.843 193.897 135.196 190.093C125.879 194.567 112.608 172.344 127.316 161.922C127.053 156.288 133.258 155.398 137.078 157.13C146.351 150.152 156.944 159.094 158.411 169.174Z" fill="#2F2E41"/>
<path d="M115.178 154.604C111.427 177.907 91.3191 150.318 81.8647 173.251C78.8921 181.555 83.9923 187.496 87.2184 194.389C87.9547 200.054 80.6601 202.929 79.8961 208.143C79.6834 220.098 98.7741 219.367 104.111 211.824C109.595 203.928 103.046 193.335 106.343 184.86C110.975 173.093 129.816 173.006 131.457 159.317C128.278 154.743 119.731 149.506 115.178 154.604Z" fill="#2F2E41"/>
<path d="M130.375 156.881C130.252 156.933 130.13 156.985 130.02 157.044H130.013C129.91 157.096 129.807 157.148 129.703 157.207C129.69 157.214 129.684 157.22 129.671 157.227C129.535 157.096 129.4 156.966 129.258 156.835C129.221 157.048 129.23 157.266 129.283 157.475L129.303 157.553C129.432 157.69 129.568 157.821 129.71 157.958C129.839 157.86 129.962 157.755 130.091 157.657C130.168 157.592 130.246 157.527 130.33 157.462C130.343 157.292 130.362 157.096 130.381 156.881L130.375 156.881ZM134.263 149.624C131.383 148.958 130.452 152.763 130.175 154.597C129.128 147.94 124.775 150.035 126.28 154.577C126.76 155.922 127.514 157.149 128.495 158.179C128.631 158.336 128.78 158.493 128.935 158.649C128.76 159.563 129.639 159.328 130.827 158.486C131.705 157.856 132.516 157.136 133.249 156.339C135.62 153.827 137.467 150.466 134.263 149.624ZM134.354 153.37C133.465 154.528 132.468 155.596 131.376 156.561C131.034 156.874 130.685 157.174 130.33 157.462C130.323 157.52 130.323 157.573 130.317 157.618C130.292 157.682 130.262 157.743 130.226 157.801C129.865 158.46 129.458 158.101 129.303 157.553C129.29 157.533 129.27 157.514 129.258 157.494C128.741 156.956 128.292 156.355 127.92 155.706C125.253 151.034 129.548 147.856 129.335 156.581C129.296 156.661 129.27 156.747 129.258 156.835C129.221 157.048 129.23 157.266 129.283 157.475L129.303 157.553C129.432 157.69 129.568 157.821 129.71 157.958C129.839 157.86 129.962 157.755 130.091 157.657C130.168 157.592 130.246 157.527 130.33 157.462C130.343 157.292 130.362 157.096 130.381 156.881V156.874C130.549 155.125 131.008 151.98 131.854 151.125C133.714 149.683 136.124 151.243 134.354 153.37ZM130.375 156.881C130.252 156.933 130.13 156.985 130.02 157.044H130.013C129.91 157.096 129.807 157.148 129.703 157.207C129.69 157.214 129.684 157.22 129.671 157.227C129.535 157.096 129.4 156.966 129.258 156.835C129.221 157.048 129.23 157.266 129.283 157.475L129.303 157.553C129.432 157.69 129.568 157.821 129.71 157.958C129.839 157.86 129.962 157.755 130.091 157.657C130.168 157.592 130.246 157.527 130.33 157.462C130.343 157.292 130.362 157.096 130.381 156.881L130.375 156.881Z" fill="#2F2E41"/>
<path d="M286.115 285.357L279.892 301.753L250.699 359.932L276.351 427.611L289.589 424.08L278.678 359.932L309.983 321.502L347.161 346.978C347.161 346.978 363.649 359.983 369.922 347.654C376.194 335.326 416.782 309.103 416.782 309.103L406.741 298.282L360.001 320.38L327.742 274.506L286.115 285.357Z" fill="#2F2E41"/>
<path d="M317.516 208.015L307.272 196.896L289.699 194.453L268.167 209.682L268.384 226.538L279.028 266.259C279.028 266.259 274.974 294.796 286.298 294.51C297.623 294.224 303.795 288.52 308.407 289.681C313.02 290.842 332.626 295.784 333.868 290.608C335.111 285.431 341.716 289.138 341.426 284.241C341.136 279.344 323.546 244.049 323.546 244.049L327.919 208.75L317.516 208.015Z" fill="#F46036"/>
<path d="M382.379 156.83C382.47 157.752 382.361 158.683 382.058 159.558C381.754 160.433 381.265 161.23 380.624 161.893C379.983 162.556 379.206 163.069 378.348 163.396C377.489 163.722 376.571 163.855 375.656 163.784L352.098 209.049L345.773 199.24L369.853 156.52C370.072 154.975 370.845 153.566 372.024 152.558C373.204 151.551 374.708 151.015 376.252 151.054C377.796 151.092 379.272 151.701 380.402 152.766C381.531 153.83 382.234 155.276 382.379 156.83Z" fill="#FFB6B6"/>
<path d="M308.215 216.432C308.215 216.432 307.281 224.483 316.253 226.476C325.225 228.47 350.081 214.12 354.156 211.929C355.432 211.243 357.164 207.879 358.94 203.581C359.738 201.652 360.545 199.535 361.323 197.387C361.774 196.144 363.931 195.805 364.356 194.572C364.778 193.347 363.468 191.227 363.85 190.072C365.665 184.588 366.951 180.238 366.951 180.238L361.005 168.953C352.688 173.395 348.423 183.179 345.285 194.452L308.215 216.432Z" fill="#F46036"/>
<path d="M203.435 167.225C203.575 168.141 203.912 169.015 204.422 169.785C204.932 170.555 205.603 171.203 206.388 171.683C207.173 172.163 208.052 172.463 208.964 172.563C209.876 172.662 210.799 172.558 211.667 172.258L245.687 210.126L249.381 199.03L215.486 163.758C214.891 162.318 213.793 161.148 212.402 160.471C211.01 159.794 209.421 159.656 207.936 160.084C206.451 160.511 205.172 161.474 204.343 162.79C203.513 164.106 203.19 165.684 203.435 167.225Z" fill="#FFB6B6"/>
<path d="M290.002 206.179C290.002 206.179 292.901 213.738 284.708 217.937C276.516 222.135 248.896 214.527 244.408 213.435C243.002 213.093 240.493 210.274 237.708 206.563C236.458 204.897 235.153 203.051 233.867 201.168C233.123 200.079 230.95 200.296 230.233 199.21C229.521 198.13 230.265 195.747 229.608 194.725C226.493 189.875 224.17 185.988 224.17 185.988L227.132 173.559C236.284 175.757 242.838 184.151 248.667 194.272L290.002 206.179Z" fill="#F46036"/>
<path d="M298.836 191.625C308.07 191.625 315.556 184.062 315.556 174.733C315.556 165.404 308.07 157.841 298.836 157.841C289.602 157.841 282.116 165.404 282.116 174.733C282.116 184.062 289.602 191.625 298.836 191.625Z" fill="#FFB6B6"/>
<path d="M317.922 165.06C316.163 162.311 312.863 160.479 309.663 160.994C309.365 158.931 308.513 156.99 307.199 155.383C305.885 153.775 304.16 152.563 302.211 151.878C300.262 151.192 298.165 151.06 296.147 151.496C294.129 151.931 292.268 152.918 290.766 154.348C290.273 153.997 289.697 153.78 289.097 153.72C288.496 153.659 287.89 153.756 287.337 154.001C286.236 154.507 285.278 155.284 284.55 156.261C282.714 158.574 281.534 161.347 281.134 164.284C280.734 167.221 281.13 170.213 282.28 172.941C281.888 171.505 283.313 170.154 284.752 169.832C286.192 169.51 287.702 169.814 289.161 169.605C291.032 169.336 292.714 168.239 294.587 167.992C296.176 167.888 297.77 168.095 299.281 168.602C300.792 169.109 302.384 169.325 303.973 169.238C305.551 169.049 307.582 175.087 307.555 179.34C307.549 180.146 307.714 181.181 308.493 181.352C309.453 181.562 310.01 180.224 310.924 179.859C311.345 179.737 311.796 179.785 312.183 179.993C312.57 180.2 312.862 180.552 312.997 180.973C313.112 181.401 313.125 181.85 313.033 182.284C312.942 182.718 312.749 183.123 312.471 183.466C311.909 184.147 311.242 184.731 310.496 185.197L310.873 185.513C311.23 185.895 311.707 186.139 312.223 186.203C312.739 186.268 313.261 186.15 313.7 185.868C314.562 185.278 315.261 184.474 315.729 183.533C317.493 180.778 318.754 177.725 319.452 174.521C320.041 171.302 319.681 167.809 317.922 165.06Z" fill="#2F2E41"/>
<path d="M441.616 231.684C420.049 248.187 377.138 242.973 363.822 271.241C323.503 356.828 289.009 291.631 253.708 284.581L253.382 282.833C288.722 285.794 326.629 281.199 363.003 269.544C395.876 259.013 425.204 243.346 447.816 224.256L449 225.75C446.613 227.767 444.151 229.745 441.616 231.684Z" fill="#F2F2F2"/>
<path d="M350.434 455.847C349.921 457.384 56.6577 457.384 56.1035 455.85C56.6165 454.31 349.879 454.31 350.434 455.847Z" fill="#CCCCCC"/>
</svg>
