<svg width="1055" height="700" viewBox="0 0 1055 700" fill="none" xmlns="http://www.w3.org/2000/svg">
<path d="M534.038 196.743C524.639 181.197 513.501 164.599 496.057 159.522C475.857 153.644 455.106 165.322 437.505 176.846C384.866 211.31 334.174 248.659 285.661 288.722L285.714 289.326C323.483 286.721 361.253 284.117 399.022 281.512C426.31 279.63 454.536 277.489 478.652 264.58C487.803 259.681 496.723 253.138 507.092 252.682C519.976 252.115 531.209 261.113 540.037 270.513C592.257 326.12 607.368 411.156 665.953 460.011C629.011 368.906 584.901 280.874 534.038 196.743Z" fill="#F2F2F2"/>
<path d="M855.025 668.388C849.25 661.097 846.891 659.389 841.194 652.03C794.814 592.043 751.22 530.031 710.413 465.992C682.695 422.5 656.352 378.172 631.383 333.009C619.496 311.538 607.934 289.899 596.699 268.091C587.98 251.181 579.456 234.171 571.127 217.059C568.745 212.172 566.43 207.262 564.127 202.341C558.7 190.768 553.375 179.139 547.656 167.724C541.139 154.713 533.207 141.074 521.241 132.332C515.795 128.191 509.283 125.685 502.466 125.108C492.725 124.479 483.737 128.501 475.288 132.894C413.47 165.129 355.597 205.543 303.251 251.53C250.77 297.62 203.862 349.69 163.481 406.68C162.245 408.444 159.324 406.759 160.571 404.984C165.481 398.04 170.488 391.172 175.593 384.378C239.065 299.961 316.892 227.368 405.515 169.915C420.426 160.253 435.616 151.043 451.087 142.287C458.884 137.871 466.715 133.512 474.681 129.422C482.49 125.411 490.782 121.805 499.703 121.67C530.061 121.198 545.78 155.579 556.577 178.712C559.97 185.993 563.404 193.251 566.88 200.487C580.014 227.957 593.654 255.177 607.799 282.146C616.529 298.797 625.45 315.351 634.562 331.807C662.921 383.052 693.062 433.26 724.986 482.43C767.276 547.562 809.229 605.099 857.407 666.006C858.733 667.692 856.362 670.096 855.025 668.388Z" fill="#E4E4E4"/>
<path d="M300.25 234.553C298.487 232.587 296.734 230.621 294.958 228.654C280.959 213.172 265.938 197.869 246.713 188.993C237.547 184.627 227.541 182.308 217.389 182.196C206.895 182.229 196.637 184.982 186.941 188.836C182.357 190.667 177.873 192.746 173.458 194.959C168.413 197.498 163.458 200.206 158.526 202.936C149.268 208.06 140.13 213.408 131.112 218.981C113.168 230.07 95.7871 242.006 78.9677 254.788C70.2487 261.417 61.7096 268.263 53.3505 275.327C45.5756 281.888 37.958 288.626 30.4977 295.539C28.9024 297.011 26.5203 294.629 28.1156 293.157C30.0818 291.326 32.0706 289.506 34.0593 287.708C39.677 282.63 45.3847 277.649 51.1824 272.765C61.7546 263.844 72.6006 255.268 83.7203 247.036C101.012 234.227 118.899 222.288 137.381 211.217C146.617 205.689 155.979 200.393 165.469 195.33C168.335 193.802 171.234 192.308 174.166 190.892C180.82 187.536 187.733 184.721 194.839 182.477C204.905 179.22 215.555 178.174 226.063 179.409C236.208 180.885 245.982 184.266 254.871 189.375C273.746 199.925 288.386 216.239 302.632 232.16C304.071 233.778 301.7 236.171 300.25 234.553Z" fill="#E4E4E4"/>
<path d="M687.002 394.992L732.233 378.449L754.69 370.235C762.003 367.56 769.3 364.515 776.861 362.599C783.431 360.722 790.407 360.811 796.928 362.855C802.743 365.007 808.066 368.307 812.58 372.557C817.192 376.804 821.483 381.387 825.418 386.268C830.308 392.143 835.125 398.081 839.963 403.998C859.934 428.421 879.773 452.95 899.482 477.585C919.191 502.22 938.768 526.959 958.213 551.803C977.706 576.707 997.064 601.716 1016.29 626.829C1018.64 629.905 1021 632.983 1023.35 636.063C1024.65 637.764 1027.58 636.087 1026.26 634.362C1006.89 608.996 987.391 583.735 967.754 558.577C948.07 533.359 928.249 508.248 908.292 483.244C888.336 458.241 868.245 433.346 848.019 408.559C842.98 402.384 837.933 396.216 832.877 390.054C828.613 384.857 824.396 379.603 819.719 374.766C811.133 365.886 800.406 358.039 787.566 357.826C780.017 357.701 772.71 360.096 765.696 362.634C758.135 365.369 750.591 368.156 743.039 370.918L697.493 387.577L686.106 391.742C684.085 392.481 684.958 395.74 687.002 394.992L687.002 394.992Z" fill="#E4E4E4"/>
<path d="M240.761 208.476C217.776 196.663 188.34 198.977 167.219 213.735C207.507 220.686 247.354 229.986 286.556 241.588C270.277 232.048 257.543 217.101 240.761 208.476Z" fill="#F2F2F2"/>
<path d="M166.993 213.693L162.568 217.29C164.064 216.031 165.62 214.851 167.219 213.734C167.143 213.721 167.068 213.706 166.993 213.693Z" fill="#F2F2F2"/>
<path d="M810.877 395.158C806.425 389.738 801.611 384.064 794.951 381.862L788.734 382.108C836.064 465.741 899.986 538.82 976.578 596.858C921.344 529.625 866.111 462.391 810.877 395.158Z" fill="#F2F2F2"/>
<path d="M424.242 350.45C427.119 360.904 433.601 370.003 442.541 376.137C445.998 378.49 450.087 380.748 451.269 384.759C451.891 387.316 451.508 390.014 450.199 392.296C448.892 394.549 447.301 396.626 445.466 398.475L445.299 399.102C436.722 394.019 428.562 387.59 423.824 378.817C419.086 370.045 418.424 358.547 424.242 350.45" fill="#F2F2F2"/>
<path d="M709.807 599.247C712.684 609.701 719.167 618.8 728.107 624.934C731.563 627.287 735.652 629.545 736.835 633.556C737.457 636.113 737.074 638.811 735.764 641.093C734.457 643.346 732.867 645.423 731.032 647.272L730.864 647.899C722.287 642.816 714.127 636.387 709.389 627.614C704.651 618.842 703.99 607.344 709.807 599.247" fill="#F2F2F2"/>
<path d="M139.902 582.088C142.779 592.542 149.261 601.64 158.202 607.775C161.658 610.128 165.747 612.386 166.93 616.397C167.552 618.953 167.168 621.651 165.859 623.934C164.552 626.187 162.962 628.264 161.127 630.113L160.959 630.74C152.382 625.657 144.222 619.227 139.484 610.455C134.746 601.682 134.084 590.185 139.902 582.088" fill="#F2F2F2"/>
<path d="M795.721 125.011C830.242 125.011 858.227 97.0267 858.227 62.5057C858.227 27.9848 830.242 0 795.721 0C761.2 0 733.215 27.9848 733.215 62.5057C733.215 97.0267 761.2 125.011 795.721 125.011Z" fill="#F46036"/>
<path d="M908.52 14.5486C878.227 10.454 843.642 26.8275 835.791 56.3705C833.812 51.1178 830.215 46.63 825.519 43.5556C820.823 40.4812 815.271 38.9794 809.665 39.2671C804.059 39.5547 798.69 41.617 794.333 45.1559C789.976 48.6949 786.857 53.5272 785.427 58.9549L788.895 61.4388C853.812 75.4772 921.011 75.1734 985.799 60.5486C964.727 38.4033 938.813 18.6432 908.52 14.5486Z" fill="#F0F0F0"/>
<path d="M778.606 97.8894C748.313 93.7948 713.728 110.168 705.877 139.711C703.898 134.459 700.301 129.971 695.605 126.896C690.909 123.822 685.357 122.32 679.751 122.608C674.145 122.896 668.776 124.958 664.419 128.497C660.062 132.036 656.943 136.868 655.513 142.296L658.981 144.78C723.898 158.818 791.097 158.514 855.885 143.889C834.813 121.744 808.899 101.984 778.606 97.8894Z" fill="#F0F0F0"/>
<path d="M1043 113.648C1042.88 113.648 1042.75 113.629 1042.63 113.59C718.574 11.1079 432.963 24.5093 250.427 53.7981C225.586 57.7825 200.678 62.3845 176.396 67.4772C170.197 68.7758 163.765 70.1678 157.281 71.6172C149.536 73.3419 141.895 75.1181 134.567 76.8942C131.403 77.6435 128.3 78.3987 125.259 79.1599C120.653 80.297 115.979 81.4818 110.969 82.784C105.371 84.2275 99.6825 85.7415 94.059 87.2843C94.0385 87.2915 94.0175 87.2975 93.9962 87.3022L93.9968 87.3035C87.645 89.0377 81.3266 90.8223 75.2166 92.6045C71.9096 93.5596 68.7163 94.5015 65.6577 95.4315C65.316 95.526 65.0132 95.617 64.7062 95.7104L64.0491 95.9102C63.6685 96.0263 63.2927 96.14 62.9169 96.2477L62.8929 96.2549L62.8935 96.2561L61.8989 96.565C60.7128 96.9241 59.5554 97.2747 58.4172 97.6242C28.3349 106.898 11.7976 113.495 11.6343 113.559C11.4849 113.619 11.3251 113.649 11.1642 113.647C11.0033 113.646 10.8443 113.612 10.6963 113.549C10.5483 113.485 10.4142 113.394 10.3017 113.278C10.1892 113.163 10.1005 113.027 10.0406 112.878C9.98073 112.728 9.95087 112.569 9.95272 112.408C9.95456 112.247 9.98809 112.088 10.0514 111.94C10.1147 111.792 10.2065 111.658 10.3216 111.545C10.4367 111.433 10.5728 111.344 10.7222 111.284C10.8868 111.22 27.5049 104.589 57.6967 95.2807C58.8391 94.9301 59.9995 94.5794 61.1892 94.2191L62.1132 93.9319C62.1449 93.9199 62.1766 93.9103 62.2089 93.9007C62.5829 93.7942 62.9564 93.6805 63.3358 93.5656L63.9941 93.3657C64.322 93.2664 64.6452 93.1683 64.9761 93.0773C68.0138 92.1533 71.2178 91.209 74.5332 90.2503C80.6456 88.4669 86.9699 86.6824 93.3265 84.9457C93.3463 84.9385 93.3666 84.9337 93.3864 84.9278V84.9265C99.0297 83.379 104.739 81.8589 110.355 80.4107C115.373 79.1073 120.056 77.92 124.67 76.7806C127.724 76.0206 130.832 75.2637 133.996 74.5101C141.332 72.7315 148.989 70.953 156.747 69.2247C163.242 67.7741 169.684 66.3785 175.893 65.0787C200.213 59.9776 225.16 55.3685 250.038 51.3781C432.836 22.0474 718.857 8.62432 1043.37 111.254C1043.65 111.342 1043.89 111.527 1044.04 111.776C1044.2 112.024 1044.26 112.32 1044.21 112.609C1044.17 112.898 1044.02 113.162 1043.8 113.353C1043.58 113.543 1043.29 113.648 1043 113.648Z" fill="#CCCCCC"/>
<path d="M322.32 514.557C321.895 513.316 321.181 512.194 320.236 511.284C319.887 510.961 319.51 510.669 319.109 510.414C315.91 508.282 311.13 507.804 308.091 510.414C307.784 510.68 307.501 510.971 307.245 511.284C306.338 512.4 305.406 513.49 304.45 514.557C302.882 516.346 301.276 518.074 299.597 519.753C299.119 520.219 298.641 520.697 298.151 521.163C297.869 521.445 297.587 521.714 297.305 521.984C296.227 523.013 295.124 524.006 294.008 524.986C293.42 525.513 292.832 526.028 292.231 526.531C291.337 527.278 290.442 528.026 289.535 528.749C289.449 528.81 289.363 528.872 289.278 528.945C289.253 528.957 289.241 528.982 289.216 528.994C289.204 528.994 289.192 528.994 289.179 529.019C289.146 529.032 289.117 529.053 289.094 529.08C288.824 529.264 288.64 529.386 288.505 529.497C288.554 529.472 288.603 529.435 288.652 529.411C288.432 529.582 288.199 529.754 287.978 529.926C285.834 531.507 283.64 533.026 281.397 534.448C275.848 538 270.019 541.094 263.969 543.701C263.564 543.861 263.148 544.032 262.731 544.192C246.89 550.682 229.705 553.214 212.665 551.57C210.925 551.435 209.184 551.251 207.444 551.018C205.434 550.724 203.436 550.369 201.451 549.964C193.892 548.456 186.496 546.223 179.365 543.297C170.446 539.212 161.962 534.236 154.045 528.443C152.819 527.573 151.581 526.702 150.343 525.857C151.753 522.4 153.138 518.944 154.486 515.464C155.16 513.784 155.809 512.105 156.447 510.414C161.459 497.386 166.166 484.235 170.676 471.035C175.235 457.664 179.537 444.215 183.582 430.689C183.998 429.316 184.403 427.943 184.795 426.571C186.915 419.425 188.95 412.264 190.898 405.086C191.082 404.387 191.278 403.701 191.45 403.002C192.014 400.943 192.565 398.884 193.105 396.825C194.33 392.18 191.56 386.628 186.682 385.513C184.334 384.911 181.843 385.244 179.735 386.442C177.627 387.64 176.067 389.609 175.382 391.935C174.855 393.921 174.328 395.894 173.789 397.879C171.203 407.476 168.482 417.039 165.626 426.571C165.21 427.943 164.793 429.316 164.376 430.689C158.077 451.45 151.16 472.004 143.627 492.349C142.72 494.812 141.801 497.267 140.869 499.715C140.416 500.916 139.962 502.117 139.497 503.318C138.602 505.683 137.683 508.049 136.764 510.414C136.236 511.799 135.697 513.184 135.158 514.557C134.803 515.427 134.459 516.297 134.116 517.155C130.622 515.9 127.001 515.029 123.319 514.557L122.73 514.483C119.875 514.14 116.988 514.164 114.139 514.557C109.875 515.054 105.773 516.482 102.122 518.74C98.4704 520.997 95.3598 524.029 93.0095 527.622C87.1634 536.826 87.237 549.989 95.4362 557.808C103.881 565.86 116.664 565.799 126.603 560.762C131.871 557.912 136.312 553.749 139.497 548.677C140.717 546.839 141.838 544.936 142.855 542.978C143.112 543.15 143.37 543.321 143.627 543.505C144.607 544.192 145.588 544.89 146.556 545.577C152.198 549.664 158.143 553.314 164.34 556.497C177.664 563.121 192.008 567.459 206.77 569.329C207.101 569.366 207.42 569.415 207.75 569.451C209.38 569.66 211.023 569.819 212.665 569.954C236.224 571.729 259.811 566.908 280.784 556.031C282.561 555.112 284.322 554.148 286.066 553.139C288.775 551.57 291.422 549.903 294.008 548.138C295.418 547.182 296.79 546.214 298.151 545.197C304.096 540.818 309.637 535.917 314.709 530.551C316.633 528.528 318.475 526.441 320.236 524.288C321.901 522.527 322.861 520.215 322.933 517.792C322.923 516.686 322.715 515.59 322.32 514.557ZM119.372 543.75C119.63 543.567 119.887 543.371 120.132 543.174C120.059 543.358 119.703 543.567 119.372 543.75H119.372ZM123.306 539.792C123.025 540.11 122.767 540.429 122.485 540.748C121.628 541.707 120.706 542.608 119.728 543.444C119.593 543.567 119.446 543.689 119.299 543.799C119.297 543.799 119.295 543.8 119.294 543.8C119.292 543.801 119.291 543.802 119.29 543.803C119.289 543.804 119.288 543.805 119.287 543.807C119.287 543.809 119.286 543.81 119.286 543.812C119.109 543.891 118.937 543.981 118.772 544.081C118.245 544.4 117.705 544.694 117.154 544.964C116.074 545.361 114.963 545.669 113.833 545.883C112.964 545.946 112.092 545.955 111.222 545.908H111.197C110.597 545.774 110.004 545.611 109.42 545.417C109.126 545.27 108.844 545.099 108.562 544.927C108.452 544.829 108.354 544.731 108.293 544.67C108.173 544.56 108.062 544.441 107.962 544.314C107.962 544.313 107.962 544.311 107.961 544.309C107.96 544.308 107.96 544.307 107.958 544.305C107.957 544.304 107.956 544.303 107.954 544.303C107.953 544.302 107.951 544.302 107.95 544.302C107.815 544.057 107.668 543.812 107.533 543.567C107.526 543.56 107.522 543.552 107.521 543.542C107.423 543.236 107.337 542.917 107.263 542.598C107.237 542.039 107.241 541.478 107.276 540.919C107.44 540.136 107.661 539.366 107.937 538.615C108.186 538.083 108.468 537.567 108.783 537.071C108.808 537.022 108.93 536.826 109.065 536.605C109.077 536.593 109.077 536.593 109.077 536.581C109.261 536.372 109.445 536.152 109.641 535.956C109.972 535.588 110.327 535.269 110.683 534.938C111.374 534.486 112.09 534.073 112.828 533.701C113.998 533.285 115.198 532.961 116.419 532.732C118.218 532.589 120.027 532.606 121.824 532.781C123.525 533.077 125.204 533.49 126.848 534.019C125.852 535.953 124.717 537.813 123.454 539.583C123.404 539.657 123.356 539.73 123.306 539.792ZM109.678 535.76C109.57 535.933 109.442 536.093 109.298 536.237C109.395 536.057 109.524 535.895 109.678 535.76Z" fill="#3F3D56"/>
<path d="M285.478 389.386C285.368 393.235 285.258 397.083 285.147 400.932C284.914 409.474 284.673 418.021 284.424 426.571C284.167 436.192 283.897 445.809 283.615 455.422C283.48 460.386 283.341 465.349 283.198 470.313C282.819 483.684 282.443 497.051 282.071 510.415C282.034 511.8 281.985 513.172 281.948 514.557C281.765 521.188 281.581 527.818 281.397 534.449C281.189 541.643 280.984 548.837 280.784 556.032C280.637 561.424 280.486 566.821 280.331 572.222C279.228 611.355 278.125 650.489 277.021 689.622C276.975 692.046 275.991 694.357 274.278 696.07C272.564 697.784 270.253 698.768 267.829 698.814C265.398 698.795 263.071 697.82 261.351 696.1C259.632 694.381 258.657 692.054 258.637 689.622C259.25 667.61 259.871 645.599 260.5 623.587C261.052 603.683 261.612 583.779 262.179 563.875C262.363 557.318 262.547 550.757 262.731 544.192C263.013 534.314 263.291 524.436 263.564 514.557C263.601 513.172 263.65 511.8 263.687 510.415C263.711 509.201 263.748 508 263.785 506.787C264.324 487.606 264.863 468.421 265.403 449.233C265.623 441.683 265.836 434.129 266.04 426.571C266.285 417.955 266.53 409.343 266.775 400.735C266.886 396.948 266.984 393.173 267.094 389.386C267.141 386.963 268.124 384.652 269.838 382.938C271.552 381.224 273.863 380.241 276.286 380.194C278.718 380.214 281.045 381.189 282.764 382.908C284.484 384.628 285.459 386.955 285.478 389.386Z" fill="#3F3D56"/>
<path d="M789.725 391.938C780.087 428.436 768.566 464.411 755.211 499.719C751.526 509.458 747.756 519.178 743.725 528.78L744.652 526.585C742.853 531.158 740.556 535.52 737.801 539.59C737.614 539.853 737.423 540.113 737.229 540.37C738.182 539.153 738.363 538.912 737.772 539.649C737.461 540.017 737.153 540.387 736.831 540.746C735.973 541.706 735.053 542.608 734.075 543.446C733.829 543.657 733.579 543.863 733.325 544.064L734.474 543.171C734.341 543.485 733.405 543.903 733.113 544.081C732.169 544.651 731.184 545.15 730.166 545.575L732.362 544.648C730.694 545.32 728.953 545.797 727.176 546.071L729.619 545.742C727.873 545.984 726.103 546.003 724.352 545.799L726.796 546.127C725.363 545.93 723.961 545.552 722.623 545.003L724.818 545.93C724.104 545.619 723.416 545.251 722.761 544.831C722.428 544.615 721.406 543.841 722.743 544.862C724.132 545.923 722.921 544.953 722.635 544.671C722.397 544.436 722.182 544.18 721.949 543.941C720.868 542.833 723.17 545.849 722.436 544.552C722.043 543.903 721.684 543.233 721.359 542.546L722.286 544.742C721.864 543.697 721.565 542.607 721.393 541.493L721.722 543.936C721.546 542.551 721.545 541.149 721.718 539.763L721.39 542.207C721.614 540.66 722.024 539.146 722.609 537.697L721.682 539.892C722.09 538.917 722.573 537.976 723.126 537.075C723.381 536.61 723.68 536.17 724.019 535.762C724.079 535.782 722.464 537.616 723.321 536.69C723.545 536.448 723.755 536.192 723.982 535.952C724.345 535.568 724.734 535.216 725.116 534.852C726.396 533.633 723.324 536.036 724.802 535.071C725.872 534.367 726.999 533.753 728.171 533.234L725.975 534.16C727.938 533.354 729.995 532.802 732.098 532.518L729.654 532.846C732.287 532.544 734.947 532.575 737.572 532.94L735.128 532.612C738.453 533.116 741.701 534.03 744.801 535.333L742.605 534.406C749.21 537.242 755.061 541.452 760.901 545.581C766.541 549.666 772.485 553.315 778.679 556.497C792.005 563.122 806.349 567.462 821.113 569.333C842.286 571.927 863.771 569.162 883.597 561.292C903.423 553.422 920.956 540.699 934.586 524.29C936.249 522.526 937.207 520.214 937.278 517.79C937.261 515.356 936.295 513.024 934.586 511.291C931.213 508.195 924.843 507.321 921.586 511.291C918.5 515.059 915.182 518.631 911.651 521.986C910.002 523.55 908.31 525.066 906.574 526.533C905.582 527.371 904.577 528.193 903.558 528.998C903.076 529.379 901.574 530.393 903.88 528.756C903.352 529.131 902.845 529.541 902.323 529.926C894.604 535.617 886.24 540.374 877.404 544.1L879.6 543.174C870.118 547.151 860.16 549.879 849.975 551.29L852.419 550.962C841.942 552.34 831.328 552.324 820.855 550.915L823.299 551.243C812.828 549.805 802.588 547.016 792.834 542.946L795.03 543.872C785.618 539.708 776.685 534.534 768.39 528.441C764.072 525.244 759.519 522.378 754.77 519.869C749.236 517.043 743.245 515.221 737.075 514.49C725.506 513.129 713.718 517.635 707.358 527.629C701.505 536.827 701.581 549.988 709.777 557.81C718.219 565.865 731.003 565.797 740.951 560.758C750.532 555.905 756.287 545.824 760.334 536.317C769.442 514.924 777.505 493.037 785.018 471.038C792.45 449.274 799.19 427.289 805.238 405.084C805.987 402.334 806.725 399.581 807.453 396.825C808.679 392.182 805.907 386.628 801.033 385.518C798.683 384.913 796.191 385.245 794.081 386.443C791.972 387.64 790.41 389.611 789.725 391.938L789.725 391.938Z" fill="#3F3D56"/>
<path d="M881.441 389.386L878.132 506.791L874.841 623.583L872.979 689.623C873 692.055 873.975 694.381 875.695 696.1C877.414 697.82 879.74 698.795 882.172 698.815C884.595 698.769 886.906 697.785 888.619 696.071C890.333 694.357 891.317 692.047 891.364 689.623L894.672 572.219L897.963 455.426L899.825 389.386C899.804 386.955 898.829 384.629 897.109 382.909C895.39 381.19 893.064 380.215 890.633 380.194C888.209 380.241 885.898 381.225 884.185 382.938C882.471 384.652 881.487 386.963 881.441 389.386Z" fill="#3F3D56"/>
<path opacity="0.2" d="M563.276 656.843H566.13V526.878H632.716V524.031H566.13V469.193H617.551C616.798 468.234 616.022 467.287 615.224 466.353H566.13V430.133C565.186 429.73 564.235 429.342 563.276 428.977V466.353H507.325V419.945C506.366 419.989 505.422 420.055 504.471 420.136V466.353H459.834V431.728C458.875 432.153 457.931 432.599 456.995 433.068V466.353H419.472V469.193H456.995V524.031H419.472V526.878H456.995V656.843H459.834V526.878C465.696 526.877 471.501 528.031 476.917 530.274C482.333 532.517 487.254 535.804 491.4 539.95C495.545 544.095 498.833 549.016 501.075 554.432C503.318 559.848 504.472 565.653 504.471 571.515V656.843H507.325V526.878H563.276V656.843ZM459.834 524.031V469.193H504.471V524.031H459.834ZM507.325 524.031V469.193H508.445C515.646 469.193 522.776 470.612 529.429 473.368C536.082 476.124 542.126 480.164 547.218 485.256C552.31 490.348 556.348 496.394 559.104 503.047C561.859 509.7 563.277 516.83 563.276 524.031H507.325Z" fill="black"/>
<path d="M545.845 617.876C542.252 633.905 533.644 648.372 521.272 659.178C520.365 659.963 519.458 660.723 518.514 661.47C516.222 661.679 513.947 661.891 511.688 662.108C509.812 662.279 507.962 662.463 506.123 662.635L505.793 662.672L505.56 660.662L504.628 652.523C501.015 646.624 498.775 639.988 498.075 633.105C497.375 626.223 498.232 619.271 500.584 612.765C503.819 604.039 509.678 596.33 515.438 588.682C523.392 578.117 531.126 567.675 531.408 554.794C535.321 559.803 538.575 565.293 541.09 571.131C538.717 572.248 536.586 573.818 534.815 575.752C534.312 576.303 533.81 577.075 534.153 577.737C534.447 578.301 535.182 578.436 535.82 578.509C537.352 578.669 538.896 578.828 540.428 578.987C541.654 579.122 542.879 579.245 544.105 579.379C545.588 584.246 546.593 589.246 547.108 594.307C547.933 602.181 547.507 610.135 545.845 617.876Z" fill="#3F3D56"/>
<path d="M586.535 585.753C579.304 591.011 575.076 598.573 571.791 606.907C568.425 607.984 565.396 609.919 563.003 612.52C562.501 613.072 561.998 613.844 562.342 614.506C562.636 615.069 563.371 615.204 564.008 615.278C565.54 615.437 567.085 615.596 568.617 615.756C565.332 625.609 562.317 635.806 556.508 644.128C552.644 649.623 547.608 654.19 541.764 657.5C540.17 658.408 538.525 659.222 536.837 659.939C530.611 660.417 524.503 660.927 518.514 661.471C516.222 661.679 513.947 661.891 511.687 662.108C509.812 662.279 507.962 662.463 506.123 662.635C506.111 661.961 506.111 661.287 506.123 660.613C506.511 642.656 513.117 625.39 524.814 611.76C525.365 611.123 525.929 610.498 526.505 609.873C532.431 603.543 539.4 598.278 547.107 594.308C559.252 587.993 572.865 585.039 586.535 585.753Z" fill="#F46036"/>
<path d="M513.808 655.819L512.398 659.986L511.688 662.107C509.812 662.278 507.962 662.462 506.123 662.634L505.792 662.671C503.758 662.879 501.736 663.087 499.713 663.296C499.186 662.683 498.659 662.058 498.145 661.42C485.352 645.929 479.211 626.004 481.065 605.999C482.918 585.994 492.614 567.536 508.035 554.658C506.417 563.127 508.305 571.241 511.406 579.293C511.075 579.428 510.756 579.562 510.45 579.71C508.077 580.826 505.946 582.396 504.175 584.33C503.672 584.881 503.17 585.654 503.513 586.316C503.807 586.879 504.542 587.014 505.18 587.088C506.712 587.247 508.256 587.406 509.788 587.566C511.013 587.7 512.239 587.823 513.465 587.958C514.041 588.019 514.617 588.08 515.193 588.142C515.279 588.325 515.352 588.497 515.438 588.681C518.931 596.255 522.693 603.866 524.814 611.759C525.345 613.739 525.763 615.748 526.064 617.777C527.008 624.631 526.396 631.61 524.274 638.196C522.153 644.782 518.575 650.805 513.808 655.819Z" fill="#F46036"/>
<path d="M637.175 478.06C626.624 457.479 610.277 440.163 591.052 427.438C571.766 414.73 549.635 406.992 526.632 404.911C523.616 404.637 520.594 404.477 517.563 404.43C513.983 404.376 460.124 419.911 442.082 432.597C424.05 445.128 409.216 461.722 398.778 481.041C388.358 500.466 383.233 522.291 383.917 544.323C384.81 566.488 390.988 588.119 401.936 607.412C412.735 626.643 428.068 642.944 446.603 654.899C465.401 666.894 484.284 698.697 506.479 699.819C528.841 700.951 554.343 670.95 574.739 661.841C595.134 652.657 612.766 638.287 625.878 620.165C638.619 602.405 646.861 581.82 649.898 560.174C653.052 538.012 651.582 515.155 644.014 493.972C642.072 488.529 639.787 483.214 637.175 478.06C634.994 473.764 628.6 472.182 624.598 474.762C622.536 476.032 621.043 478.047 620.429 480.389C619.815 482.731 620.127 485.22 621.301 487.338C622.581 489.861 623.772 492.426 624.874 495.032L623.947 492.836C628.114 502.856 630.947 513.379 632.375 524.136L632.046 521.692C633.565 533.363 633.537 545.182 631.965 556.846L632.294 554.402C630.705 566.064 627.592 577.468 623.035 588.32L623.961 586.124C621.617 591.661 618.885 597.025 615.785 602.177C614.213 604.78 612.546 607.322 610.783 609.803C610.009 610.891 609.211 611.961 608.407 613.027C607.358 614.419 609.837 611.209 608.753 612.574C608.568 612.807 608.385 613.04 608.199 613.272C607.643 613.968 607.078 614.658 606.506 615.341C602.684 619.9 598.514 624.154 594.033 628.067C592.917 629.041 591.782 629.993 590.629 630.924C590.054 631.387 589.487 631.871 588.888 632.302C588.91 632.286 590.823 630.832 589.691 631.676C589.335 631.941 588.982 632.211 588.625 632.475C586.248 634.236 583.807 635.908 581.303 637.49C575.539 641.122 569.491 644.283 563.219 646.943L565.414 646.017C554.595 650.572 543.223 653.683 531.592 655.272L534.035 654.943C522.41 656.515 510.627 656.535 498.997 655.005L501.44 655.334C490.869 653.914 480.529 651.119 470.683 647.019L472.879 647.945C467.176 645.537 461.677 642.672 456.436 639.377C453.843 637.743 451.316 636.008 448.858 634.172C448.507 633.91 448.159 633.644 447.81 633.38C446.688 632.534 448.616 634.005 448.631 634.015C447.979 633.547 447.351 633.046 446.75 632.514C445.562 631.547 444.393 630.558 443.243 629.546C438.64 625.492 434.342 621.105 430.383 616.42C429.391 615.249 428.422 614.06 427.473 612.853C427.062 612.331 426.313 611.272 427.968 613.502C427.75 613.208 427.525 612.92 427.305 612.629C426.776 611.928 426.255 611.222 425.741 610.511C423.941 608.02 422.23 605.469 420.608 602.856C416.944 596.942 413.745 590.751 411.042 584.339L411.969 586.535C407.546 576.011 404.521 564.953 402.972 553.643L403.301 556.087C401.903 545.662 401.883 535.098 403.241 524.668L402.913 527.111C404.305 517.011 407.023 507.137 410.995 497.747L410.069 499.943C412.568 494.064 415.516 488.387 418.887 482.96C420.575 480.245 422.363 477.596 424.252 475.013C424.682 474.426 425.116 473.843 425.555 473.263C425.952 472.738 427.044 471.433 425.18 473.739C425.363 473.513 425.539 473.28 425.719 473.052C426.756 471.739 427.818 470.446 428.905 469.173C433.02 464.356 437.478 459.841 442.243 455.666C443.448 454.611 444.671 453.577 445.914 452.566C446.478 452.107 447.046 451.652 447.619 451.202C447.847 451.023 448.079 450.846 448.307 450.665C445.859 452.613 447.627 451.195 448.182 450.779C450.743 448.86 453.372 447.037 456.07 445.311C462.066 441.476 468.374 438.152 474.927 435.374L472.731 436.3C482.242 432.307 524.379 422.881 532.043 423.91L529.6 423.582C540.864 425.154 551.874 428.196 562.348 432.629L560.152 431.703C565.46 433.957 570.618 436.548 575.595 439.46C578.081 440.918 580.519 442.455 582.908 444.071C584.039 444.837 585.157 445.619 586.264 446.418C586.817 446.818 587.367 447.222 587.914 447.63C588.218 447.857 588.519 448.087 588.823 448.314C590.096 449.269 587.068 446.931 588.403 447.987C592.872 451.498 597.116 455.286 601.11 459.328C603.072 461.326 604.966 463.387 606.793 465.512C607.73 466.602 608.648 467.708 609.546 468.83C609.993 469.387 611.514 471.405 609.65 468.934C610.105 469.538 610.566 470.138 611.016 470.746C614.889 475.988 618.328 481.538 621.301 487.338C623.498 491.625 629.863 493.224 633.877 490.636C635.94 489.367 637.433 487.351 638.048 485.009C638.662 482.666 638.349 480.177 637.175 478.06Z" fill="#3F3D56"/>
<path d="M530.069 628.067C529.12 628.111 528.181 627.861 527.378 627.353C526.576 626.845 525.949 626.103 525.582 625.226C525.216 624.35 525.128 623.382 525.33 622.454C525.532 621.526 526.014 620.682 526.712 620.038C526.829 619.573 526.912 619.24 527.029 618.776C526.987 618.674 526.945 618.574 526.903 618.473C522.638 608.303 495.423 636.652 494.247 646.21C493.729 650.435 493.947 654.718 494.893 658.868C486.078 639.638 481.5 618.738 481.471 597.584C481.469 592.276 481.764 586.972 482.354 581.696C482.842 577.372 483.519 573.078 484.385 568.815C489.109 545.683 499.254 524.003 513.985 505.553C522.409 506.023 529.792 504.74 530.505 488.413C530.632 485.508 532.786 482.994 533.261 480.133C532.457 480.238 531.639 480.304 530.835 480.357C530.584 480.37 530.321 480.383 530.07 480.396L529.976 480.401C529.092 480.44 528.215 480.223 527.452 479.777C526.688 479.33 526.07 478.671 525.672 477.881C525.273 477.091 525.112 476.203 525.207 475.323C525.302 474.443 525.649 473.61 526.206 472.923C526.554 472.496 526.901 472.068 527.249 471.642C527.776 470.982 528.317 470.336 528.844 469.677C528.905 469.614 528.962 469.548 529.016 469.479C529.622 468.728 530.229 467.989 530.835 467.238C529.728 465.519 528.239 464.08 526.484 463.032C520.406 459.472 512.02 461.937 507.629 467.435C503.226 472.934 502.395 480.647 503.925 487.516C505.429 493.361 507.917 498.908 511.282 503.918C510.952 504.34 510.609 504.749 510.28 505.171C504.254 512.919 499.002 521.239 494.6 530.011C495.845 520.282 480.614 485.145 474.723 477.702C467.648 468.762 453.139 472.664 451.893 483.996C451.881 484.106 451.869 484.216 451.857 484.325C452.732 484.819 453.589 485.343 454.427 485.897C455.479 486.6 456.295 487.605 456.767 488.78C457.239 489.955 457.345 491.245 457.071 492.481C456.797 493.717 456.156 494.842 455.232 495.707C454.308 496.573 453.144 497.139 451.893 497.332L451.765 497.352C440.053 514.074 477.598 557.596 486.995 547.824C482.572 560.359 479.797 573.416 478.741 586.667C478.144 594.484 478.179 602.337 478.847 610.149L478.807 609.872C476.719 592.858 440.898 567.561 430.437 569.669C424.411 570.882 418.476 570.606 419.391 576.685C419.406 576.782 419.42 576.879 419.436 576.976C421.059 577.637 422.64 578.399 424.169 579.257C425.044 579.751 425.9 580.275 426.738 580.829C427.791 581.532 428.607 582.537 429.078 583.712C429.55 584.887 429.656 586.177 429.382 587.413C429.108 588.649 428.468 589.773 427.544 590.639C426.62 591.505 425.456 592.071 424.205 592.264L424.076 592.284C423.984 592.297 423.905 592.31 423.813 592.323C418.482 610.666 458.016 640.269 482.051 630.85H482.064C484.446 641.2 487.897 651.275 492.361 660.911H529.147C529.279 660.503 529.398 660.081 529.517 659.672C526.112 659.886 522.693 659.682 519.338 659.065C522.067 655.716 524.796 652.341 527.526 648.992C527.586 648.93 527.644 648.863 527.697 648.794C529.081 647.08 530.479 645.379 531.863 643.665L531.864 643.663C531.938 638.409 531.335 633.168 530.07 628.068L530.069 628.067ZM487.944 545.2L487.964 545.174L487.944 545.227V545.2ZM479.796 618.654L479.48 617.942C479.493 617.427 479.493 616.913 479.48 616.386C479.48 616.241 479.453 616.096 479.453 615.951C479.572 616.86 479.677 617.77 479.809 618.68L479.796 618.654Z" fill="#3F3D56"/>
<path d="M116.737 551.521C124.183 551.521 130.219 545.485 130.219 538.039C130.219 530.594 124.183 524.558 116.737 524.558C109.291 524.558 103.255 530.594 103.255 538.039C103.255 545.485 109.291 551.521 116.737 551.521Z" fill="#3F3D56"/>
<path d="M278.517 698.593C285.962 698.593 291.998 692.557 291.998 685.112C291.998 677.666 285.962 671.63 278.517 671.63C271.071 671.63 265.035 677.666 265.035 685.112C265.035 692.557 271.071 698.593 278.517 698.593Z" fill="#3F3D56"/>
<path d="M892.544 698.593C899.989 698.593 906.025 692.557 906.025 685.112C906.025 677.666 899.989 671.63 892.544 671.63C885.098 671.63 879.062 677.666 879.062 685.112C879.062 692.557 885.098 698.593 892.544 698.593Z" fill="#3F3D56"/>
<path d="M925.635 527.009C933.081 527.009 939.117 520.973 939.117 513.528C939.117 506.082 933.081 500.046 925.635 500.046C918.189 500.046 912.153 506.082 912.153 513.528C912.153 520.973 918.189 527.009 925.635 527.009Z" fill="#3F3D56"/>
<path d="M886.415 401.997C893.861 401.997 899.897 395.962 899.897 388.516C899.897 381.07 893.861 375.034 886.415 375.034C878.97 375.034 872.934 381.07 872.934 388.516C872.934 395.962 878.97 401.997 886.415 401.997Z" fill="#3F3D56"/>
<path d="M323.864 513.528C323.856 516.972 322.524 520.28 320.144 522.769C317.765 525.259 314.519 526.738 311.079 526.9C307.639 527.063 304.269 525.897 301.664 523.644C299.06 521.391 297.422 518.222 297.089 514.795C296.756 511.367 297.753 507.943 299.874 505.23C301.995 502.517 305.079 500.724 308.485 500.221C311.892 499.718 315.362 500.544 318.177 502.528C320.991 504.513 322.935 507.503 323.607 510.881C323.78 511.752 323.866 512.639 323.864 513.528Z" fill="#3F3D56"/>
<path d="M593.497 441.216C600.942 441.216 606.978 435.18 606.978 427.735C606.978 420.289 600.942 414.253 593.497 414.253C586.051 414.253 580.015 420.289 580.015 427.735C580.015 435.18 586.051 441.216 593.497 441.216Z" fill="#3F3D56"/>
<path d="M459.906 427.735C459.898 431.179 458.566 434.487 456.186 436.977C453.807 439.466 450.561 440.945 447.121 441.107C443.681 441.27 440.31 440.104 437.706 437.851C435.102 435.598 433.464 432.429 433.131 429.002C432.797 425.574 433.795 422.15 435.916 419.437C438.037 416.724 441.12 414.931 444.527 414.428C447.934 413.925 451.404 414.751 454.218 416.735C457.033 418.72 458.977 421.71 459.649 425.088C459.821 425.959 459.908 426.846 459.906 427.735Z" fill="#3F3D56"/>
<path d="M285.87 388.516C285.862 391.96 284.531 395.269 282.151 397.758C279.771 400.247 276.525 401.726 273.086 401.889C269.646 402.052 266.275 400.886 263.671 398.632C261.067 396.379 259.428 393.211 259.095 389.783C258.762 386.356 259.759 382.931 261.88 380.218C264.002 377.506 267.085 375.712 270.492 375.209C273.899 374.706 277.368 375.533 280.183 377.517C282.998 379.501 284.942 382.491 285.613 385.869C285.786 386.741 285.872 387.627 285.87 388.516Z" fill="#3F3D56"/>
<path d="M734.441 556.423C741.887 556.423 747.922 550.387 747.922 542.942C747.922 535.496 741.887 529.46 734.441 529.46C726.995 529.46 720.959 535.496 720.959 542.942C720.959 550.387 726.995 556.423 734.441 556.423Z" fill="#3F3D56"/>
<path d="M522.412 433.864C533.242 433.864 542.021 425.084 542.021 414.254C542.021 403.424 533.242 394.645 522.412 394.645C511.582 394.645 502.802 403.424 502.802 414.254C502.802 425.084 511.582 433.864 522.412 433.864Z" fill="#3F3D56"/>
<path d="M1052.72 699.623L1.45929 699.999C1.26765 699.999 1.07789 699.962 0.900837 699.888C0.723787 699.815 0.562925 699.707 0.427416 699.572C0.291908 699.436 0.184403 699.276 0.111066 699.099C0.0377297 698.921 0 698.732 0 698.54C0 698.348 0.0377297 698.159 0.111066 697.982C0.184403 697.805 0.291908 697.644 0.427416 697.508C0.562925 697.373 0.723787 697.265 0.900837 697.192C1.07789 697.118 1.26765 697.081 1.45929 697.081L1052.72 696.704C1053.11 696.705 1053.48 696.859 1053.75 697.133C1054.02 697.407 1054.17 697.777 1054.17 698.163C1054.17 698.55 1054.02 698.92 1053.75 699.194C1053.48 699.467 1053.11 699.622 1052.72 699.623Z" fill="#CACACA"/>
</svg>
