<svg width="300" height="300" viewBox="0 0 300 300" fill="none" xmlns="http://www.w3.org/2000/svg">
<g opacity="0.5">
<path opacity="0.5" d="M150 300C232.843 300 300 232.843 300 150C300 67.1573 232.843 0 150 0C67.1573 0 0 67.1573 0 150C0 232.843 67.1573 300 150 300Z" fill="url(#paint0_linear_2_291)"/>
</g>
<path d="M150.292 295.878C231.388 295.878 297.129 230.137 297.129 149.042C297.129 67.9459 231.388 2.20486 150.292 2.20486C69.1966 2.20486 3.4556 67.9459 3.4556 149.042C3.4556 230.137 69.1966 295.878 150.292 295.878Z" fill="#CAC7FF"/>
<path d="M150.43 296.458C179.122 296.505 207.193 288.104 231.142 272.304C225.731 242.734 205.139 241.049 205.139 241.049H91.586C91.586 241.049 72.1547 242.643 66.086 269.845C90.7776 287.214 120.241 296.51 150.43 296.458Z" fill="#F46036"/>
<path d="M148.87 216.821C188.012 216.821 219.744 185.09 219.744 145.947C219.744 106.804 188.012 75.0731 148.87 75.0731C109.727 75.0731 77.9957 106.804 77.9957 145.947C77.9957 185.09 109.727 216.821 148.87 216.821Z" fill="#333333"/>
<path opacity="0.1" d="M125.996 204.98H171.408V241.311C171.408 247.331 169.017 253.106 164.761 257.364C160.504 261.622 154.731 264.015 148.711 264.017C142.689 264.017 136.913 261.625 132.655 257.367C128.397 253.108 126.004 247.333 126.004 241.311V204.98H125.996Z" fill="black"/>
<path d="M127.436 203.295H169.986C170.368 203.295 170.734 203.447 171.004 203.717C171.274 203.987 171.426 204.353 171.426 204.735V239.626C171.426 242.609 170.839 245.563 169.698 248.319C168.556 251.075 166.883 253.579 164.773 255.688C162.664 257.797 160.16 259.469 157.404 260.61C154.647 261.751 151.694 262.338 148.711 262.337C142.689 262.337 136.913 259.944 132.655 255.686C128.397 251.428 126.004 245.652 126.004 239.63V204.735C126.004 204.355 126.155 203.99 126.423 203.72C126.691 203.45 127.055 203.297 127.436 203.295Z" fill="#FDB797"/>
<path opacity="0.1" d="M126.077 222.129C140.713 227.597 156.824 227.641 171.49 222.254V216.666H126.077V222.129Z" fill="black"/>
<path d="M148.87 225.168C184.82 225.168 213.963 196.024 213.963 160.075C213.963 124.125 184.82 94.9814 148.87 94.9814C112.92 94.9814 83.7765 124.125 83.7765 160.075C83.7765 196.024 112.92 225.168 148.87 225.168Z" fill="#FDB797"/>
<path opacity="0.1" d="M102.503 100.865C102.503 100.865 129.937 156.55 207.322 124.212L189.305 95.9613L157.367 84.4986L102.503 100.865Z" fill="black"/>
<path d="M102.503 100.049C102.503 100.049 129.937 155.734 207.322 123.387L189.305 95.1361L157.367 83.6734L102.503 100.049Z" fill="#333333"/>
<path d="M102.262 96.2751C104.112 90.549 107.309 85.3504 111.585 81.1161C124.388 68.4585 145.38 65.7894 156.146 51.3568C158.725 55.3625 156.731 61.5215 152.278 63.2407C162.593 63.1719 174.546 62.2694 180.378 53.7851C181.82 57.1407 182.279 60.8364 181.703 64.4428C181.127 68.0491 179.539 71.4179 177.125 74.1576C186.266 74.5874 196.036 80.7765 196.612 89.9098C197.007 95.9957 193.173 101.755 188.192 105.245C183.211 108.735 177.142 110.338 171.189 111.649C153.808 115.487 90.9198 131.549 102.262 96.2751Z" fill="#333333"/>
<path d="M83.7507 171.37C87.0953 171.37 89.8066 166.286 89.8066 160.014C89.8066 153.743 87.0953 148.659 83.7507 148.659C80.4061 148.659 77.6948 153.743 77.6948 160.014C77.6948 166.286 80.4061 171.37 83.7507 171.37Z" fill="#FDB797"/>
<path d="M213.954 171.37C217.299 171.37 220.01 166.286 220.01 160.014C220.01 153.743 217.299 148.659 213.954 148.659C210.61 148.659 207.898 153.743 207.898 160.014C207.898 166.286 210.61 171.37 213.954 171.37Z" fill="#FDB797"/>
<defs>
<linearGradient id="paint0_linear_2_291" x1="150" y1="300" x2="150" y2="0" gradientUnits="userSpaceOnUse">
<stop stop-color="#808080" stop-opacity="0.25"/>
<stop offset="0.54" stop-color="#808080" stop-opacity="0.12"/>
<stop offset="1" stop-color="#808080" stop-opacity="0.1"/>
</linearGradient>
</defs>
</svg>
