<svg width="504" height="400" viewBox="0 0 504 400" fill="none" xmlns="http://www.w3.org/2000/svg">
<g clip-path="url(#clip0_313_816)">
<path d="M375.516 395.195C368.549 389.307 364.316 380.006 365.426 370.952C366.536 361.897 373.411 353.573 382.328 351.651C391.245 349.728 401.411 355.05 404.119 363.761C405.61 346.967 407.327 329.469 416.256 315.167C424.341 302.217 438.345 292.95 453.521 291.293C468.698 289.635 484.676 295.896 494.141 307.875C503.606 319.853 505.924 337.267 499.295 351.02C494.411 361.151 485.414 368.69 475.988 374.824C445.528 394.478 408.994 402.47 373.11 397.33" fill="#F2F2F2"/>
<path d="M479.134 296.243C466.611 306.443 455.123 317.85 444.836 330.301C428.736 349.719 415.708 371.49 406.205 394.856C405.51 396.561 408.278 397.303 408.966 395.617C424.513 357.643 449.334 324.172 481.158 298.267C482.587 297.103 480.551 295.089 479.134 296.243Z" fill="white"/>
<path d="M123.075 399.225H83.5576C82.2223 399.224 80.9421 398.693 79.9979 397.748C79.0537 396.804 78.5226 395.524 78.5211 394.189V312.055C78.5226 310.72 79.0537 309.44 79.9979 308.495C80.9421 307.551 82.2223 307.02 83.5576 307.019H123.075C124.41 307.02 125.69 307.551 126.634 308.495C127.579 309.44 128.11 310.72 128.111 312.055V394.189C128.11 395.524 127.579 396.804 126.634 397.748C125.69 398.693 124.41 399.224 123.075 399.225Z" fill="#F46036"/>
<path d="M216.831 400H177.314C175.773 399.999 174.296 399.386 173.207 398.296C172.117 397.207 171.504 395.73 171.503 394.189V234.571C171.504 233.03 172.117 231.553 173.207 230.463C174.296 229.374 175.773 228.761 177.314 228.759H216.831C218.372 228.761 219.849 229.374 220.939 230.463C222.028 231.553 222.641 233.03 222.642 234.571V394.189C222.641 395.73 222.028 397.207 220.939 398.296C219.849 399.386 218.372 399.999 216.831 400ZM177.314 230.309C176.184 230.31 175.101 230.76 174.302 231.559C173.503 232.358 173.054 233.441 173.052 234.571V394.189C173.054 395.319 173.503 396.402 174.302 397.201C175.101 398 176.184 398.449 177.314 398.451H216.831C217.961 398.449 219.044 398 219.843 397.201C220.642 396.402 221.092 395.319 221.093 394.189V234.571C221.092 233.441 220.642 232.358 219.843 231.559C219.044 230.76 217.961 230.31 216.831 230.309H177.314Z" fill="#3F3D56"/>
<path d="M310.587 400H271.07C269.53 399.998 268.052 399.386 266.963 398.296C265.874 397.207 265.261 395.73 265.259 394.189V133.066C265.261 131.525 265.874 130.048 266.963 128.958C268.052 127.869 269.53 127.256 271.07 127.254H310.587C312.128 127.256 313.605 127.869 314.695 128.958C315.784 130.048 316.397 131.525 316.399 133.066V394.189C316.397 395.73 315.784 397.207 314.695 398.296C313.605 399.386 312.128 399.998 310.587 400ZM271.07 128.804C269.94 128.805 268.857 129.255 268.058 130.054C267.259 130.853 266.81 131.936 266.809 133.066V394.189C266.81 395.319 267.259 396.402 268.058 397.201C268.857 398 269.94 398.449 271.07 398.451H310.587C311.717 398.449 312.801 398 313.6 397.201C314.398 396.402 314.848 395.319 314.849 394.189V133.066C314.848 131.936 314.398 130.853 313.6 130.054C312.801 129.255 311.717 128.805 310.587 128.804H271.07Z" fill="#3F3D56"/>
<path d="M405.219 399.613H365.702C364.367 399.611 363.086 399.08 362.142 398.136C361.198 397.192 360.667 395.911 360.665 394.576V26.5243C360.667 25.189 361.198 23.9088 362.142 22.9647C363.086 22.0205 364.367 21.4893 365.702 21.4878H405.219C406.554 21.4893 407.834 22.0205 408.779 22.9647C409.723 23.9088 410.254 25.189 410.255 26.5243V394.576C410.254 395.911 409.723 397.192 408.779 398.136C407.834 399.08 406.554 399.611 405.219 399.613Z" fill="#F46036"/>
<path d="M159.447 172.293C159.591 171.163 159.485 170.015 159.136 168.931C158.788 167.846 158.206 166.851 157.432 166.016C156.658 165.18 155.71 164.525 154.655 164.096C153.6 163.666 152.463 163.473 151.325 163.531L137.551 138.264L134.452 149.112L143.889 172.268C144.112 174.173 145.026 175.93 146.457 177.206C147.889 178.482 149.739 179.188 151.657 179.191C153.575 179.194 155.427 178.494 156.863 177.223C158.299 175.951 159.218 174.197 159.447 172.293V172.293Z" fill="#A0616A"/>
<path d="M53.3218 272.059L60.9936 277.66L86.2497 250.732L74.9261 242.465L53.3218 272.059Z" fill="#A0616A"/>
<path d="M70.5893 295.586L46.4761 277.983L53.2777 268.666L68.0744 279.468C70.5453 281.272 72.1984 283.984 72.67 287.007C73.1416 290.029 72.3932 293.116 70.5893 295.586L70.5893 295.586Z" fill="#2F2E41"/>
<path d="M93.9121 301.707L103.412 301.706L107.931 265.065L93.9106 265.066L93.9121 301.707Z" fill="#A0616A"/>
<path d="M121.733 310.527L91.8772 310.528L91.8766 298.993L110.197 298.992C113.256 298.992 116.19 300.207 118.354 302.37C120.517 304.534 121.732 307.468 121.733 310.527Z" fill="#2F2E41"/>
<path d="M122.442 158.797C122.442 158.797 127.091 203.739 115.468 234.732L106.945 293.621H92.2229L93.7726 223.885L88.3486 161.897C88.3486 161.897 99.1965 134.002 122.442 158.797Z" fill="#2F2E41"/>
<path d="M72.077 161.896L87.5739 215.36L57.3549 263.401L72.4644 276.186L106.945 222.334L96.872 156.472L72.077 161.896Z" fill="#2F2E41"/>
<path d="M111.597 42.0078C122.108 42.0078 130.628 33.4874 130.628 22.9768C130.628 12.4663 122.108 3.9458 111.597 3.9458C101.087 3.9458 92.566 12.4663 92.566 22.9768C92.566 33.4874 101.087 42.0078 111.597 42.0078Z" fill="#A0616A"/>
<path d="M95.7097 49.1564C95.7097 49.1564 107.332 41.408 120.505 58.4546L123.992 165.771C123.992 165.771 113.919 151.824 92.9977 164.996C72.0769 178.168 67.4278 163.446 67.4278 163.446C67.4278 163.446 52.7057 52.6432 95.7097 49.1564Z" fill="#CCCCCC"/>
<path d="M119.567 58.1843C122.91 58.365 126.068 59.7755 128.433 62.1443C130.799 64.5131 132.205 67.673 132.381 71.016L134.839 117.731L151.111 161.897L141.813 169.645L111.594 116.956L105.407 73.6472C105.123 71.6622 105.284 69.639 105.876 67.7232C106.468 65.8075 107.477 64.0469 108.832 62.5681C110.186 61.0893 111.851 59.9292 113.707 59.1711C115.564 58.4131 117.565 58.0761 119.567 58.1843Z" fill="#CCCCCC"/>
<path d="M97.6134 37.2518C100.725 40.5659 106.503 38.7868 106.908 34.2593C106.94 33.9078 106.937 33.554 106.901 33.203C106.692 31.1974 105.533 29.3767 105.811 27.2592C105.873 26.7322 106.07 26.2299 106.381 25.8C108.86 22.4801 114.68 27.2849 117.02 24.2795C118.455 22.4367 116.768 19.5352 117.869 17.4755C119.322 14.757 123.626 16.098 126.326 14.6093C129.329 12.9528 129.149 8.34523 127.172 5.54265C124.761 2.1248 120.534 0.301005 116.36 0.0381386C112.186 -0.224728 108.04 0.90371 104.143 2.42245C99.7151 4.14804 95.3242 6.53287 92.5993 10.4263C89.2856 15.1612 88.9667 21.5268 90.624 27.0633C91.6321 30.4312 95.0727 34.5455 97.6134 37.2518Z" fill="#2F2E41"/>
<path d="M502.476 399.671H0.922602C0.678377 399.671 0.444391 399.573 0.271947 399.4C0.099504 399.227 0.00268555 398.993 0.00268555 398.749C0.00268555 398.505 0.099504 398.27 0.271947 398.097C0.444391 397.924 0.678377 397.827 0.922602 397.826H502.476C502.72 397.827 502.954 397.924 503.126 398.097C503.299 398.27 503.396 398.505 503.396 398.749C503.396 398.993 503.299 399.227 503.126 399.4C502.954 399.573 502.72 399.671 502.476 399.671Z" fill="#3F3D56"/>
</g>
<defs>
<clipPath id="clip0_313_816">
<rect width="503.398" height="400" fill="white"/>
</clipPath>
</defs>
</svg>
