<svg width="1010" height="751" viewBox="0 0 1010 751" fill="none" xmlns="http://www.w3.org/2000/svg">
<g clip-path="url(#clip0_2_71)">
<path opacity="0.1" d="M485 750.87C774.949 750.87 1010 736.095 1010 717.87C1010 699.645 774.949 684.87 485 684.87C195.051 684.87 -40 699.645 -40 717.87C-40 736.095 195.051 750.87 485 750.87Z" fill="#6C63FF"/>
<path d="M807.65 693.43C807.658 696.038 807.389 698.639 806.85 701.19C806.75 701.67 806.64 702.19 806.53 702.6C803.69 713.99 795.68 722.32 786.12 722.85C785.8 722.85 785.48 722.85 785.12 722.85C775.01 722.85 766.46 714.13 763.64 702.12C763.56 701.8 763.49 701.48 763.42 701.12C762.881 698.569 762.612 695.968 762.62 693.36C762.62 677.09 772.69 663.91 785.12 663.91C797.55 663.91 807.65 677.18 807.65 693.43Z" fill="#3F3D56"/>
<path d="M855.65 638.58C855.658 631.424 853.98 624.366 850.75 617.98L824.29 626.21L847.52 612.55C843.625 606.92 838.516 602.237 832.569 598.846C826.621 595.456 819.989 593.444 813.16 592.96C812.071 591.313 810.878 589.736 809.59 588.24L771.59 600.07L802.76 581.75C796.797 577.176 789.8 574.142 782.385 572.916C774.971 571.69 767.369 572.309 760.252 574.719C753.134 577.129 746.719 581.256 741.576 586.735C736.432 592.213 732.717 598.875 730.76 606.13L763.31 643.61L728 618.06C719.047 624.401 712.671 633.748 710.035 644.398C707.399 655.048 708.679 666.29 713.641 676.075C718.603 685.86 726.917 693.535 737.066 697.701C747.216 701.868 758.524 702.247 768.93 698.77C778.342 702.22 788.624 702.501 798.21 699.57C804.893 701.049 811.823 701.008 818.489 699.452C825.155 697.896 831.386 694.863 836.724 690.579C842.062 686.294 846.369 680.865 849.33 674.694C852.291 668.522 853.828 661.765 853.83 654.92C853.83 653.92 853.83 652.92 853.73 651.92C855.026 647.593 855.673 643.097 855.65 638.58Z" fill="#6C63FF"/>
<path opacity="0.1" d="M854.86 647.07C840.887 644.416 826.556 644.234 812.52 646.53C796.63 649.16 780.39 654.94 764.85 650.71C755.73 648.23 747.85 642.49 738.94 639.31C730.345 636.303 721.083 635.745 712.19 637.7C708.798 645.807 707.813 654.72 709.352 663.372C710.891 672.025 714.889 680.051 720.868 686.492C726.846 692.933 734.554 697.516 743.068 699.693C751.582 701.87 760.543 701.55 768.88 698.77C778.292 702.22 788.574 702.501 798.16 699.57C804.843 701.049 811.773 701.008 818.439 699.452C825.105 697.896 831.336 694.864 836.674 690.579C842.011 686.294 846.32 680.865 849.28 674.694C852.241 668.522 853.779 661.765 853.78 654.92C853.78 653.92 853.78 652.92 853.68 651.92C854.162 650.326 854.556 648.707 854.86 647.07Z" fill="black"/>
<path d="M658.6 171.97H652.87C651.605 171.97 650.58 172.995 650.58 174.26V254.7C650.58 255.965 651.605 256.99 652.87 256.99H658.6C659.865 256.99 660.89 255.965 660.89 254.7V174.26C660.89 172.995 659.865 171.97 658.6 171.97Z" fill="#3F3D56"/>
<path d="M312.05 105.36H309.26C308.432 105.36 307.76 106.032 307.76 106.86V131.85C307.76 132.678 308.432 133.35 309.26 133.35H312.05C312.878 133.35 313.55 132.678 313.55 131.85V106.86C313.55 106.032 312.878 105.36 312.05 105.36Z" fill="#3F3D56"/>
<path d="M312.38 156.61H309.24C308.307 156.61 307.55 157.367 307.55 158.3V203.64C307.55 204.573 308.307 205.33 309.24 205.33H312.38C313.313 205.33 314.07 204.573 314.07 203.64V158.3C314.07 157.367 313.313 156.61 312.38 156.61Z" fill="#3F3D56"/>
<path d="M312.25 222.37H309.26C308.371 222.37 307.65 223.091 307.65 223.98V269.9C307.65 270.789 308.371 271.51 309.26 271.51H312.25C313.139 271.51 313.86 270.789 313.86 269.9V223.98C313.86 223.091 313.139 222.37 312.25 222.37Z" fill="#3F3D56"/>
<path d="M620.45 12.87H346.73C327.019 12.87 311.04 28.849 311.04 48.56V678.55C311.04 698.261 327.019 714.24 346.73 714.24H620.45C640.161 714.24 656.14 698.261 656.14 678.55V48.56C656.14 28.849 640.161 12.87 620.45 12.87Z" fill="#3F3D56"/>
<path d="M495.95 33.81H452.84C451.437 33.81 450.3 34.9472 450.3 36.35V41.06C450.3 42.4628 451.437 43.6 452.84 43.6H495.95C497.353 43.6 498.49 42.4628 498.49 41.06V36.35C498.49 34.9472 497.353 33.81 495.95 33.81Z" fill="#E6E8EC"/>
<path d="M511.33 44.25C514.395 44.25 516.88 41.7652 516.88 38.7C516.88 35.6348 514.395 33.15 511.33 33.15C508.265 33.15 505.78 35.6348 505.78 38.7C505.78 41.7652 508.265 44.25 511.33 44.25Z" fill="#E6E8EC"/>
<path d="M634.83 58.54V668.54C634.827 675.808 631.938 682.777 626.798 687.915C621.658 693.054 614.688 695.94 607.42 695.94H359.76C352.492 695.94 345.522 693.054 340.382 687.915C335.242 682.777 332.353 675.808 332.35 668.54V58.54C332.35 54.9405 333.059 51.3762 334.436 48.0507C335.814 44.7251 337.833 41.7035 340.378 39.1582C342.923 36.613 345.945 34.594 349.271 33.2165C352.596 31.839 356.16 31.13 359.76 31.13H396.82V35.89C396.831 41.8699 399.213 47.6015 403.444 51.8271C407.675 56.0527 413.41 58.4274 419.39 58.43H545.39C548.354 58.43 551.289 57.8462 554.027 56.712C556.765 55.5777 559.254 53.9152 561.349 51.8194C563.445 49.7236 565.108 47.2355 566.242 44.4972C567.376 41.7589 567.96 38.8239 567.96 35.86V31.13H607.47C614.731 31.1432 621.69 34.0369 626.819 39.1759C631.949 44.3148 634.83 51.2791 634.83 58.54Z" fill="white"/>
<path opacity="0.2" d="M637 310.43V517.86H634.83V518.07H332.35V264.65C334.29 262.437 336.257 260.14 338.25 257.76C380.73 207.03 438.47 193.68 483.16 192.28C513.78 191.28 544.26 197.61 573.36 210.18C588.73 216.82 610.79 224.1 634.83 224.82V303.24C636.3 307.43 637 310.43 637 310.43Z" fill="#6C63FF"/>
<path opacity="0.2" d="M637 310.43V517.86H332.35V381.98C343.2 379.25 358.35 368.75 377.79 339.74C401.04 305.03 432.63 295.9 457.08 294.94C473.83 294.28 490.51 298.58 506.43 307.19C524.34 316.86 558.86 328.52 585.09 294.67C614.09 257.24 629.51 288.11 634.83 303.24C636.3 307.43 637 310.43 637 310.43Z" fill="#6C63FF"/>
<path d="M593 479.87H375C368.373 479.87 363 485.243 363 491.87V543.87C363 550.497 368.373 555.87 375 555.87H593C599.627 555.87 605 550.497 605 543.87V491.87C605 485.243 599.627 479.87 593 479.87Z" fill="#736E9E"/>
<path d="M94.06 683.72L113.2 672.43C110.612 668.009 107.303 664.051 103.41 660.72L67.3 671.99L95.6 655.35C88.5945 651.512 80.7105 649.565 72.7239 649.7C64.7373 649.835 56.9235 652.047 50.0515 656.119C43.1795 660.19 37.4862 665.981 33.5319 672.922C29.5777 679.862 27.4989 687.712 27.5 695.7C27.5 721.11 48.09 721.99 73.5 721.99C98.91 721.99 119.5 721.11 119.5 695.7C119.509 689.272 118.163 682.913 115.55 677.04L94.06 683.72Z" fill="#6C63FF"/>
<path opacity="0.1" d="M98.93 708.43C96.893 706.387 94.6165 704.597 92.15 703.1C88.67 700.79 85.08 698.44 80.98 697.65C77.38 696.96 73.67 697.54 69.98 697.34C63.6133 696.948 57.6208 694.199 53.17 689.63C50.56 686.93 48.5 683.63 45.36 681.54C41.97 679.32 37.67 678.84 33.65 679.39C32.485 679.566 31.3301 679.803 30.19 680.1C28.3853 685.106 27.4649 690.388 27.47 695.71C27.47 721.12 48.06 722 73.47 722C85.8 722 96.99 721.79 105.25 718.67L103.87 716.09C102.554 713.338 100.894 710.764 98.93 708.43Z" fill="black"/>
<path d="M188.24 582.3C186.778 583.582 185.652 585.203 184.96 587.02C183.25 592.36 188.03 597.6 188.49 603.19C188.85 607.63 186.49 611.77 185.15 616.03C183.638 621.322 183.736 626.944 185.431 632.18C187.127 637.416 190.343 642.029 194.67 645.43C195.591 646.212 196.679 646.773 197.85 647.07C198.816 647.186 199.796 647.105 200.73 646.829C201.663 646.554 202.531 646.092 203.28 645.47C205.602 643.781 207.373 641.443 208.37 638.75C209.2 636.104 209.647 633.353 209.7 630.58L210.41 619.88C211.15 608.71 211.82 597.19 209.1 586.22C208.21 582.62 206.56 574.35 202.4 573.85C198.24 573.35 191 579.6 188.24 582.3Z" fill="#3F3D56"/>
<path d="M258 536.34C253.005 553.882 249.384 571.786 247.17 589.89C246.85 592.44 246.52 595.12 244.98 597.18C241.91 601.31 235.76 601.05 230.66 600.38C229.436 600.316 228.242 599.974 227.17 599.38C225.25 598.08 224.83 595.48 224.6 593.17C221.107 559.117 218.773 524.973 217.6 490.74C217.55 489.43 260.29 489.31 263.95 492.74C267.61 496.17 264.77 509 263.95 513.37C262.61 521.15 260.19 528.73 258 536.34Z" fill="#FBBEBE"/>
<path opacity="0.05" d="M258 536.34C253.005 553.882 249.384 571.786 247.17 589.89C246.85 592.44 246.52 595.12 244.98 597.18C241.91 601.31 235.76 601.05 230.66 600.38C229.436 600.316 228.242 599.974 227.17 599.38C225.25 598.08 224.83 595.48 224.6 593.17C221.107 559.117 218.773 524.973 217.6 490.74C217.55 489.43 260.29 489.31 263.95 492.74C267.61 496.17 264.77 509 263.95 513.37C262.61 521.15 260.19 528.73 258 536.34Z" fill="black"/>
<path d="M169 485.87L186.31 523.94C192.07 536.6 197.87 549.4 200.62 563.03C201.723 568.724 202.428 574.488 202.73 580.28C203.148 585.245 202.993 590.241 202.27 595.17C201.64 598.83 200.48 602.39 199.97 606.07C197.97 620.74 206.28 634.54 211.97 648.19C216.886 659.913 220.014 672.308 221.25 684.96C221.77 690.35 222.06 696.07 225.14 700.52C230.77 698.83 236.27 697.37 242.14 698.03C243.19 689.42 237.75 681.49 235.75 673.03C232.08 657.53 240.19 641.24 237.43 625.55C235.93 617.05 231.28 609.05 231.66 600.43C232.37 584.71 235.32 568.83 232.32 553.43C228.94 536.02 219.22 520.19 217.07 502.59C215.42 489.07 218.07 474.12 210.54 462.76C194.09 461.79 177.08 471.5 169 485.87Z" fill="#FBBEBE"/>
<path d="M225.89 724.95C224.16 725.01 222.14 724.95 221.07 723.58C220.548 722.783 220.248 721.861 220.2 720.91C219.381 714.882 218.98 708.804 219 702.72C219 700.5 219.1 698.14 220.34 696.31C221.25 695.193 222.287 694.186 223.43 693.31C226.08 690.86 228.01 687.31 231.43 686.18C232.928 685.744 234.517 685.723 236.026 686.12C237.536 686.516 238.909 687.314 240 688.43C242.158 690.731 243.494 693.681 243.8 696.82C244.3 700.54 243.88 704.59 245.85 707.82C246.63 709.07 247.72 710.09 248.6 711.27C251.6 715.27 254.29 723.1 248.1 724.72C241.54 726.43 232.7 724.73 225.89 724.95Z" fill="#3F3D56"/>
<path d="M240.9 260.57C244.4 253.81 242.31 245.11 237.31 239.37C232.31 233.63 225 230.43 217.54 228.7C207.54 226.36 196.82 226.38 187.25 230.06C179.62 232.99 173.05 238.06 166.01 242.2C153.569 249.524 139.644 253.966 125.26 255.2C109.26 256.55 91.39 254.45 79.02 264.64C56.36 283.3 72.14 325.35 51.02 345.71C45.32 351.2 37.71 354.17 31.18 358.64C24.65 363.11 18.81 370.26 19.86 378.1C20.36 381.87 22.42 385.27 24.8 388.24C35.02 401.01 52.18 407.7 68.41 405.71C84.64 403.72 99.5 393.3 107.41 378.96C109.41 375.37 111.03 371.44 114.18 368.83C120.49 363.62 129.75 365.73 137.93 365.48C156.12 364.92 172.64 349.33 174.23 331.19C174.91 323.44 173.59 314.42 179.16 308.98C183.65 304.58 190.67 304.62 196.81 303.27C208.09 300.8 216.3 292.64 221.45 282.68C223.81 278.1 223.57 272.98 227.07 269.18C230.8 265 237.57 266.99 240.9 260.57Z" fill="#3F3D56"/>
<g opacity="0.1">
<path opacity="0.1" d="M110.35 258.37C116.984 257.804 123.543 256.554 129.92 254.64C128.12 254.89 126.32 255.1 124.51 255.25C111.97 256.3 98.25 255.25 86.95 259.66C94.65 258.87 102.72 259.01 110.35 258.37Z" fill="black"/>
<path opacity="0.1" d="M99.19 372C96.04 374.6 94.38 378.54 92.42 382.13C86.3598 393.054 76.6549 401.503 65 406C65.89 405.94 66.78 405.86 67.67 405.75C83.9 403.75 98.76 393.35 106.67 379.01C108.67 375.42 110.28 371.48 113.44 368.88L113.98 368.46C108.49 368.33 103.23 368.66 99.19 372Z" fill="black"/>
<path opacity="0.1" d="M236.56 239.43C231.56 233.69 224.2 230.5 216.79 228.76C206.79 226.42 196.07 226.45 186.49 230.13L185.85 230.39C191.486 230.069 197.139 230.571 202.63 231.88C210.04 233.62 217.41 236.81 222.4 242.56C227.39 248.31 229.49 257 225.99 263.76C222.66 270.18 215.89 268.18 212.08 272.33C208.58 276.12 208.82 281.25 206.46 285.83C202.03 294.4 195.32 301.62 186.36 305.05C189.49 304.31 192.85 303.98 195.97 303.3C207.25 300.82 215.46 292.67 220.61 282.71C222.98 278.13 222.74 273 226.23 269.21C230.05 265.06 236.82 267.05 240.14 260.64C243.64 253.9 241.55 245.2 236.56 239.43Z" fill="black"/>
<path opacity="0.1" d="M181.82 306.43C175.68 307.77 168.66 307.74 164.17 312.13C158.6 317.58 159.92 326.6 159.24 334.35C158.05 347.9 148.52 360.03 136.19 365.54H137.1C155.29 364.98 171.8 349.38 173.39 331.25C174.08 323.49 172.76 314.47 178.33 309.03C179.606 307.812 181.108 306.854 182.75 306.21L181.82 306.43Z" fill="black"/>
</g>
<path d="M241.2 351.58C240.37 353.05 238.66 353.73 237.07 354.32C220.61 360.38 203.29 366.55 185.93 364C185.28 361.27 184.64 358.53 184 355.8C183.073 351.84 182.14 347.88 181.2 343.92C180.76 342.03 180.31 340.12 179.95 338.2C179.33 335.168 179.131 332.066 179.36 328.98C179.466 327.862 179.667 326.754 179.96 325.67C180.474 323.697 181.334 321.832 182.5 320.16C182.7 319.89 182.91 319.62 183.13 319.36C184.119 318.168 185.319 317.168 186.67 316.41C189.62 314.79 193.67 314.1 194.86 310.96C195.32 309.318 195.275 307.576 194.73 305.96C193.73 301.96 191.92 298.2 190.8 294.24C189.38 289.24 191.52 289.55 196.35 288.34C205.05 286.15 214.15 284.58 223.08 286.34C222.66 290.75 222.25 295.27 223.36 299.57C224.47 303.87 227.44 307.95 231.71 309.14C232.34 309.32 233.01 309.43 233.71 309.58C234.637 309.729 235.517 310.092 236.28 310.64C236.806 311.075 237.224 311.626 237.5 312.25C237.935 313.305 238.221 314.416 238.35 315.55C239.917 326.043 241.047 336.587 241.74 347.18V347.58C241.946 348.938 241.758 350.326 241.2 351.58Z" fill="#FBBEBE"/>
<path d="M156.46 334.35C152.72 340.04 151.46 346.96 150.32 353.68L143.06 395.78C142.06 401.54 141.17 407.87 144.12 412.92C145.12 414.63 146.52 416.11 147.25 417.92C147.802 419.741 148.163 421.614 148.33 423.51C150.03 433.16 159.52 439.67 169.04 442.01C172.48 442.86 176.5 443.19 179.21 440.9C182.21 438.41 182.21 433.67 180.44 430.25C178.67 426.83 175.44 424.41 172.31 422.12L161.94 414.48L167.94 368.48C168.38 365.14 169.94 360.81 173.32 361.18C176.4 361.51 178.77 366 181.51 364.55C182.369 363.969 182.973 363.082 183.2 362.07C184.4 358.3 184.07 354.24 183.73 350.29L182.49 336.03C182.08 331.4 183.27 327.93 183.83 323.58C184.48 318.51 181.1 320.05 176.93 321.14C168.92 323.26 161.09 327.29 156.46 334.35Z" fill="#FBBEBE"/>
<path d="M285.41 403.49C284.648 404.772 283.52 405.796 282.17 406.43C274.073 410.995 264.552 412.334 255.51 410.18C253.426 409.568 251.31 409.074 249.17 408.7C245.75 408.28 242.27 408.96 238.82 408.7C231.82 408.17 225.67 403.8 220.82 398.7C217.9 395.7 215.25 390.79 217.97 387.57C218.73 386.793 219.674 386.221 220.714 385.906C221.754 385.591 222.857 385.544 223.92 385.77C226.037 386.242 228.08 387.002 229.99 388.03C236.683 391.133 243.843 393.106 251.18 393.87C256.18 394.39 262.54 393.54 264.27 388.79C265.11 386.48 264.52 383.92 263.93 381.53C262.317 374.983 260.703 368.433 259.09 361.88C258.979 361.308 258.776 360.757 258.49 360.25C258.408 360.113 258.311 359.985 258.2 359.87C257.562 359.339 256.791 358.993 255.97 358.87C252.24 357.95 248.51 356.46 245.84 353.71C244.09 351.758 242.696 349.514 241.72 347.08C241.44 346.47 241.18 345.85 240.91 345.23C238.86 340.45 236.7 335.55 235.03 330.53C233.864 327.137 233.004 323.646 232.46 320.1C232.02 317.03 231.78 315.62 233.46 314.26C233.91 313.92 234.389 313.619 234.89 313.36C235.66 312.95 236.53 312.54 237.45 312.15L238.34 311.78C241.075 310.686 243.886 309.79 246.75 309.1C253.69 307.49 261.1 310.85 265.86 316.16C270.62 321.47 273.09 328.42 274.67 335.37C276.25 342.32 277.06 349.44 279.04 356.28C279.81 358.96 280.77 361.6 281.43 364.28C282.138 367.468 282.643 370.698 282.94 373.95C283.88 382.237 284.817 390.523 285.75 398.81C286.095 400.37 285.977 401.996 285.41 403.49Z" fill="#FBBEBE"/>
<path d="M182.73 399.89C184.73 412.65 178.98 425.2 173.42 436.89C176.57 439.19 180.42 440.33 184.18 441.32C209.346 447.936 235.508 449.904 261.38 447.13C262 442.81 262.58 438.23 260.81 434.25C259.71 431.78 257.81 429.77 256.6 427.35C254.6 423.35 254.8 418.7 255.02 414.26L256.81 376.43C244.4 370.71 230.01 376.07 216.36 376.84C209.29 377.24 202.13 376.38 195.16 377.63C191.54 378.28 180.16 380.07 178.45 383.8C176.74 387.53 182.12 395.83 182.73 399.89Z" fill="#FBBEBE"/>
<path opacity="0.05" d="M182.73 399.89C184.73 412.65 178.98 425.2 173.42 436.89C176.57 439.19 180.42 440.33 184.18 441.32C209.346 447.936 235.508 449.904 261.38 447.13C262 442.81 262.58 438.23 260.81 434.25C259.71 431.78 257.81 429.77 256.6 427.35C254.6 423.35 254.8 418.7 255.02 414.26L256.81 376.43C244.4 370.71 230.01 376.07 216.36 376.84C209.29 377.24 202.13 376.38 195.16 377.63C191.54 378.28 180.16 380.07 178.45 383.8C176.74 387.53 182.12 395.83 182.73 399.89Z" fill="black"/>
<path d="M215.61 436.51C202.16 433.71 188.94 429.08 175.21 428.76C174.521 428.69 173.826 428.822 173.21 429.14C172.54 429.694 172.093 430.472 171.95 431.33C170.53 436.23 169.26 441.167 168.14 446.14C164.42 462.67 162.59 480.93 170.77 495.77C170.69 490.95 173.72 486.44 177.77 483.77C181.82 481.1 186.67 480.02 191.47 479.58C196.27 479.14 201.4 479.32 205.87 481.29C208.994 482.709 211.689 484.926 213.685 487.717C215.681 490.508 216.907 493.775 217.24 497.19L264.49 498.72C264.767 498.801 265.059 498.811 265.341 498.75C265.622 498.69 265.884 498.559 266.103 498.372C266.321 498.184 266.489 497.945 266.592 497.675C266.695 497.406 266.728 497.116 266.69 496.83C268.432 481.673 268.368 466.362 266.5 451.22C265.98 446.99 265.91 441.12 261.15 439.53C255.47 437.63 246.49 439.85 240.42 439.59C232.08 439.239 223.783 438.209 215.61 436.51Z" fill="#3F3D56"/>
<path d="M258.5 362.43L258.35 383.43L210.55 385.02C201.78 385.32 192.94 385.62 184.39 387.57C181.93 388.13 179.5 388.83 177.08 389.52C174.56 380.29 172.08 370.62 172.74 361.21C172.922 358.671 173.365 356.158 174.06 353.71C175.58 348.43 178.43 343.45 179.95 338.23C180.563 336.198 180.899 334.092 180.95 331.97C180.837 329.851 180.501 327.749 179.95 325.7C179.511 324.019 179.303 322.287 179.33 320.55L183.12 319.38C183.23 319.83 183.32 320.27 183.4 320.73C183.56 321.68 183.69 322.65 183.78 323.62C183.994 326.024 184.061 328.438 183.98 330.85C183.85 335.67 183.2 341.04 186.21 344.85C190.12 349.74 197.64 348.98 203.78 347.76L219.86 344.55C224.94 343.55 230.61 342.13 233.26 337.68C234.391 335.519 234.987 333.119 235 330.68V330.2C235.239 324.889 234.71 319.57 233.43 314.41C233.04 312.79 232.56 311.19 232.02 309.62H233.63C234.557 309.769 235.437 310.132 236.2 310.68C236.726 311.115 237.144 311.666 237.42 312.29L238.31 311.92C241.858 326.424 247.705 340.265 255.63 352.92C256.649 354.368 257.457 355.954 258.03 357.63C258.268 358.539 258.402 359.471 258.43 360.41C258.51 361 258.5 361.71 258.5 362.43Z" fill="#FF6F61"/>
<path d="M208 298.87C224.016 298.87 237 285.886 237 269.87C237 253.854 224.016 240.87 208 240.87C191.984 240.87 179 253.854 179 269.87C179 285.886 191.984 298.87 208 298.87Z" fill="#FBBEBE"/>
<path d="M156.46 334.35C152.72 340.04 151.46 346.96 150.32 353.68L143.06 395.78C142.06 401.54 141.17 407.87 144.12 412.92C145.12 414.63 146.52 416.11 147.25 417.92C147.802 419.741 148.163 421.614 148.33 423.51C150.03 433.16 159.52 439.67 169.04 442.01C172.48 442.86 176.5 443.19 179.21 440.9C182.21 438.41 182.21 433.67 180.44 430.25C178.67 426.83 175.44 424.41 172.31 422.12L161.94 414.48L167.94 368.48C168.34 365.17 161.09 327.29 156.46 334.35Z" fill="#FBBEBE"/>
<path d="M274.68 335.43C276.26 342.38 277.07 349.5 279.05 356.34C279.82 359.03 280.78 361.66 281.44 364.34C282.148 367.525 282.653 370.751 282.95 374L285.76 398.86C286.084 400.395 285.962 401.991 285.41 403.46C284.645 404.739 283.518 405.763 282.17 406.4C274.07 410.953 264.552 412.292 255.51 410.15C253.429 409.528 251.311 409.034 249.17 408.67C245.75 408.24 242.27 408.93 238.82 408.67C231.82 408.14 225.67 403.78 220.82 398.72C217.9 395.72 215.25 390.8 217.97 387.58C218.73 386.803 219.674 386.231 220.714 385.916C221.754 385.601 222.857 385.554 223.92 385.78C226.038 386.255 228.08 387.019 229.99 388.05C236.685 391.145 243.844 393.115 251.18 393.88C256.18 394.41 262.54 393.56 264.27 388.8C265.11 386.49 264.52 383.93 263.93 381.54L259.09 361.89C258.89 361.21 273.1 328.49 274.68 335.43Z" fill="#FBBEBE"/>
<path d="M190.05 278.8C188.76 274.17 186.95 268.38 190.58 265.24C191.885 264.233 193.456 263.631 195.1 263.51C203.25 262.51 211.68 267.31 219.48 264.75C221.968 263.937 224.167 262.421 225.813 260.386C227.459 258.351 228.48 255.882 228.754 253.279C229.028 250.676 228.542 248.05 227.356 245.716C226.17 243.383 224.334 241.443 222.07 240.13C218.66 238.13 214.59 237.74 210.66 237.39C200.31 236.44 189.52 235.56 179.84 239.39C170.16 243.22 162 253.08 164 263.29C164.93 268.16 167.94 272.35 171 276.23C173.35 279.18 182.78 293.23 186.57 293.03C191.91 292.73 190.89 281.81 190.05 278.8Z" fill="#3F3D56"/>
<path opacity="0.1" d="M222.07 240.13C221.492 239.796 220.891 239.505 220.27 239.26C222.026 240.853 223.333 242.88 224.06 245.137C224.786 247.394 224.908 249.802 224.412 252.12C223.916 254.439 222.819 256.587 221.233 258.349C219.646 260.11 217.624 261.425 215.37 262.16C207.57 264.72 199.14 259.92 190.99 260.92C189.346 261.041 187.775 261.643 186.47 262.65C182.84 265.79 184.65 271.58 185.94 276.21C186.78 279.21 187.8 290.14 182.48 290.44H182.39C184.04 292.05 185.53 293.1 186.59 293.04C191.91 292.74 190.89 281.82 190.05 278.81C188.76 274.18 186.95 268.39 190.58 265.25C191.885 264.243 193.456 263.641 195.1 263.52C203.25 262.52 211.68 267.32 219.48 264.76C221.968 263.947 224.167 262.431 225.813 260.396C227.459 258.361 228.48 255.892 228.754 253.289C229.028 250.686 228.542 248.06 227.356 245.726C226.17 243.393 224.334 241.453 222.07 240.14V240.13Z" fill="black"/>
<path d="M648 600.87H322V701.87H648V600.87Z" fill="#3F3D56"/>
<path d="M471 633.51V669.21L499 651.36L471 633.51Z" fill="white"/>
<path d="M221 34.13L205.48 43.97L214.9 26.84C212.23 24.709 208.926 23.53 205.51 23.49H205.26C204.182 23.5058 203.104 23.4255 202.04 23.25L196.78 26.58L199.04 22.48C195.308 21.1819 192.086 18.7303 189.84 15.48L180.42 21.48L186.37 10.67C180.86 4.06001 173.44 0.0100098 165.28 0.0100098C155.49 0.0100098 146.77 5.83001 141.14 14.9C139.475 17.6234 137.116 19.8551 134.304 21.3663C131.493 22.8775 128.33 23.6139 125.14 23.5H124.61C113.8 23.5 105.04 35.75 105.04 50.87C105.04 65.99 113.8 78.24 124.61 78.24C126.988 78.2289 129.328 77.6422 131.43 76.53C135.107 74.7402 139.13 73.7719 143.219 73.6925C147.308 73.613 151.366 74.4243 155.11 76.07C158.278 77.4872 161.709 78.2198 165.18 78.2198C168.651 78.2198 172.082 77.4872 175.25 76.07C178.968 74.4582 182.989 73.6651 187.04 73.7445C191.091 73.8239 195.078 74.7739 198.73 76.53C200.81 77.6188 203.122 78.1915 205.47 78.2C216.28 78.2 225.04 65.94 225.04 50.83C225.114 45.0127 223.725 39.2701 221 34.13Z" fill="#F2F2F2"/>
<path opacity="0.03" d="M191.74 74.18C186.103 73.111 180.275 73.7445 175 76C171.831 77.4141 168.4 78.145 164.93 78.145C161.46 78.145 158.029 77.4141 154.86 76C151.115 74.3578 147.057 73.5493 142.968 73.6305C138.88 73.7116 134.857 74.6805 131.18 76.47C129.077 77.5779 126.737 78.1612 124.36 78.17C114.76 78.17 106.77 68.5 105.11 55.74C107.024 54.3372 108.653 52.5825 109.91 50.57C115.54 41.49 124.26 35.67 134.05 35.67C143.84 35.67 152.45 41.42 158.05 50.4C159.735 53.1008 162.088 55.3214 164.882 56.8472C167.676 58.373 170.817 59.1523 174 59.11H174.25C181.9 59.11 188.52 65.24 191.74 74.18Z" fill="black"/>
<path d="M752 257.17L744.26 262.08L748.96 253.53C747.629 252.469 745.982 251.882 744.28 251.86H744.15C743.615 251.869 743.079 251.832 742.55 251.75L739.88 253.43L741.01 251.38C739.15 250.735 737.543 249.517 736.42 247.9L731.72 250.9L734.72 245.51C733.471 243.898 731.879 242.585 730.06 241.664C728.24 240.744 726.238 240.241 724.2 240.19C719.32 240.19 714.97 243.09 712.2 247.62C711.366 248.98 710.186 250.094 708.781 250.848C707.375 251.601 705.794 251.968 704.2 251.91H703.94C698.55 251.91 694.18 258.03 694.18 265.56C694.18 273.09 698.55 279.22 703.94 279.22C705.125 279.215 706.292 278.923 707.34 278.37C709.174 277.477 711.179 276.993 713.219 276.952C715.258 276.91 717.282 277.312 719.15 278.13C720.721 278.841 722.425 279.212 724.15 279.22C725.872 279.214 727.574 278.853 729.15 278.16C731.004 277.356 733.009 276.96 735.029 276.998C737.049 277.036 739.038 277.507 740.86 278.38C741.896 278.927 743.049 279.215 744.22 279.22C749.61 279.22 753.98 273.1 753.98 265.56C754.038 262.641 753.357 259.755 752 257.17Z" fill="#F2F2F2"/>
<path opacity="0.03" d="M737.37 277.15C734.555 276.61 731.643 276.927 729.01 278.06C727.436 278.761 725.733 279.124 724.01 279.124C722.287 279.124 720.584 278.761 719.01 278.06C717.142 277.243 715.118 276.841 713.08 276.881C711.041 276.92 709.035 277.401 707.2 278.29C706.153 278.848 704.986 279.143 703.8 279.15C699.01 279.15 695.03 274.32 694.2 267.96C695.155 267.261 695.966 266.386 696.59 265.38C699.4 260.85 703.75 257.95 708.59 257.95C713.43 257.95 717.77 260.82 720.59 265.29C721.43 266.649 722.61 267.767 724.012 268.533C725.415 269.299 726.992 269.687 728.59 269.66H728.71C732.46 269.63 735.77 272.69 737.37 277.15Z" fill="black"/>
<path d="M769.13 129.66L781.56 137.55L774 123.82C776.14 122.117 778.785 121.174 781.52 121.14H781.72C782.584 121.153 783.447 121.089 784.3 120.95L788.52 123.62L786.71 120.34C789.694 119.293 792.272 117.334 794.08 114.74L801.63 119.52L796.86 110.86C801.27 105.56 807.22 102.32 813.76 102.32C821.61 102.32 828.59 106.98 833.1 114.25C834.434 116.425 836.32 118.209 838.566 119.419C840.813 120.629 843.34 121.223 845.89 121.14H846.31C854.97 121.14 861.99 130.96 861.99 143.07C861.99 155.18 854.99 165 846.31 165C844.406 164.99 842.533 164.52 840.85 163.63C837.9 162.192 834.672 161.414 831.391 161.35C828.11 161.286 824.854 161.938 821.85 163.26C819.312 164.394 816.564 164.98 813.785 164.98C811.006 164.98 808.258 164.394 805.72 163.26C802.742 161.967 799.521 161.33 796.276 161.392C793.03 161.454 789.836 162.214 786.91 163.62C785.239 164.49 783.384 164.949 781.5 164.96C772.84 164.96 765.82 155.14 765.82 143.03C765.788 138.367 766.926 133.77 769.13 129.66Z" fill="#F2F2F2"/>
<path opacity="0.03" d="M792.56 161.75C797.085 160.888 801.765 161.396 806 163.21C808.538 164.344 811.286 164.93 814.065 164.93C816.844 164.93 819.592 164.344 822.13 163.21C825.135 161.892 828.391 161.243 831.672 161.309C834.953 161.375 838.18 162.153 841.13 163.59C842.814 164.477 844.687 164.944 846.59 164.95C854.28 164.95 860.68 157.2 862.02 146.95C860.478 145.832 859.169 144.422 858.17 142.8C853.66 135.54 846.67 130.87 838.83 130.87C830.99 130.87 824.08 135.48 819.57 142.67C818.222 144.838 816.338 146.622 814.099 147.848C811.86 149.074 809.343 149.702 806.79 149.67H806.59C800.45 149.68 795.14 154.59 792.56 161.75Z" fill="black"/>
</g>
<defs>
<clipPath id="clip0_2_71">
<rect width="1050" height="750.87" fill="white" transform="translate(-40)"/>
</clipPath>
</defs>
</svg>
