<svg width="1065" height="641" viewBox="0 0 1065 641" fill="none" xmlns="http://www.w3.org/2000/svg">
<g clip-path="url(#clip0_2_314)">
<path d="M548.018 637.719C531.181 640.418 514.141 641.314 497.144 640.396C456.159 638.143 415.851 625.171 381.405 600.784C366.132 589.97 351.563 576.684 343.657 558.837C332.928 534.601 336.68 503.919 352.002 482.809C357.591 475.195 364.466 468.813 372.257 464.007C373.411 463.297 374.591 462.614 375.783 461.959C388.764 454.856 403.345 451.951 417.797 453.588C442.367 456.511 465.044 472.841 478.145 495.658C489.815 516.003 493.881 540.008 496.278 564.067C496.73 568.6 497.119 573.147 497.495 577.667C495.407 590.761 492.124 603.596 487.694 615.981C487.469 616.585 487.285 617.206 487.142 617.838C489.652 623.764 492.041 629.745 494.308 635.78C496.438 637.039 498.824 637.696 501.248 637.692H547.917L548.018 637.719Z" fill="#F2F2F2"/>
<path d="M493.341 638.88C493.032 639.03 492.698 639.112 492.359 639.12C492.021 639.129 491.684 639.064 491.368 638.929C491.053 638.794 490.766 638.593 490.523 638.336C490.28 638.079 490.086 637.772 489.953 637.433C489.752 636.914 489.564 636.395 489.363 635.876C487.556 631.097 485.662 626.363 483.679 621.675C458.295 561.178 420.432 507.865 373.034 465.878C372.763 465.67 372.547 465.387 372.41 465.058C372.274 464.729 372.22 464.366 372.257 464.007C372.325 463.595 372.479 463.206 372.705 462.868C372.932 462.53 373.226 462.252 373.565 462.056C373.904 461.859 374.28 461.747 374.664 461.731C375.048 461.714 375.43 461.792 375.783 461.959C375.972 462.052 376.149 462.171 376.31 462.314C396.589 480.286 415.192 500.387 431.851 522.325C448.514 544.244 463.185 567.867 475.66 592.864C479.061 599.692 482.29 606.614 485.347 613.633C485.95 615.026 486.553 616.432 487.142 617.838C489.652 623.764 492.04 629.745 494.308 635.78C494.346 635.876 494.383 635.985 494.421 636.081C494.536 636.339 494.6 636.621 494.607 636.908C494.615 637.196 494.565 637.481 494.463 637.746C494.361 638.011 494.208 638.249 494.015 638.445C493.821 638.64 493.592 638.789 493.341 638.88Z" fill="white"/>
<path d="M326.904 458.791C353.934 458.791 375.845 434.949 375.845 405.538C375.845 376.128 353.934 352.286 326.904 352.286C299.875 352.286 277.963 376.128 277.963 405.538C277.963 434.949 299.875 458.791 326.904 458.791Z" fill="#CAC7FF"/>
<path d="M322.053 425.853C320.952 425.855 319.88 425.468 318.999 424.749L318.945 424.705L307.443 415.123C306.91 414.679 306.463 414.125 306.126 413.493C305.79 412.861 305.572 412.163 305.484 411.439C305.395 410.715 305.439 409.979 305.612 409.273C305.785 408.568 306.085 407.906 306.493 407.326C306.901 406.746 307.41 406.26 307.991 405.894C308.573 405.529 309.214 405.291 309.88 405.196C310.545 405.1 311.221 405.148 311.87 405.337C312.518 405.525 313.126 405.851 313.659 406.296L321.109 412.512L338.713 387.529C339.122 386.95 339.631 386.464 340.212 386.098C340.793 385.733 341.434 385.496 342.1 385.4C342.765 385.305 343.441 385.353 344.089 385.541C344.737 385.73 345.345 386.056 345.878 386.5L345.768 386.662L345.881 386.503C346.955 387.401 347.657 388.726 347.835 390.188C348.012 391.649 347.649 393.127 346.826 394.298L326.119 423.683C325.64 424.36 325.024 424.908 324.319 425.284C323.614 425.661 322.839 425.855 322.053 425.853Z" fill="white"/>
<path d="M1063.8 641H209.199C208.881 640.999 208.576 640.84 208.351 640.559C208.126 640.278 208 639.897 208 639.5C208 639.103 208.126 638.722 208.351 638.441C208.576 638.16 208.881 638.001 209.199 638H1063.8C1064.12 638.001 1064.42 638.16 1064.65 638.441C1064.87 638.722 1065 639.103 1065 639.5C1065 639.897 1064.87 640.278 1064.65 640.559C1064.42 640.84 1064.12 640.999 1063.8 641Z" fill="#3F3D56"/>
<path d="M207.743 185.626C227.8 185.626 244.06 167.934 244.06 146.11C244.06 124.285 227.8 106.594 207.743 106.594C187.686 106.594 171.426 124.285 171.426 146.11C171.426 167.934 187.686 185.626 207.743 185.626Z" fill="#2F2E41"/>
<path d="M179.396 124.804C185.264 118.418 186.454 109.359 182.052 104.57C177.651 99.7805 169.325 101.075 163.457 107.46C157.588 113.846 156.399 122.905 160.8 127.694C165.202 132.483 173.527 131.189 179.396 124.804Z" fill="#2F2E41"/>
<path d="M245.595 112.255C248.04 106.026 243.835 98.1012 236.202 94.5537C228.57 91.0062 220.401 93.1796 217.955 99.4082C215.51 105.637 219.715 113.562 227.348 117.109C234.98 120.657 243.149 118.483 245.595 112.255Z" fill="#2F2E41"/>
<path d="M308.87 374.252C309.787 372.354 310.311 370.26 310.405 368.118C310.498 365.976 310.159 363.838 309.411 361.854C308.663 359.87 307.524 358.089 306.075 356.636C304.626 355.182 302.901 354.092 301.023 353.443L248.548 232.656L224.544 250.971L283.673 363.941C282.88 367.447 283.295 371.148 284.841 374.342C286.388 377.537 288.957 380.003 292.063 381.274C295.168 382.545 298.595 382.532 301.692 381.238C304.79 379.944 307.344 377.458 308.87 374.252V374.252Z" fill="#FFB8B8"/>
<path d="M260.582 252.808L232.712 266.368C231.92 266.754 231.059 266.949 230.191 266.941C229.322 266.932 228.466 266.72 227.679 266.319C226.893 265.918 226.195 265.337 225.633 264.616C225.072 263.894 224.66 263.05 224.425 262.14L216.207 230.253C214.416 225.827 214.31 220.809 215.914 216.299C217.518 211.79 220.7 208.156 224.762 206.195C228.825 204.234 233.436 204.105 237.585 205.838C241.734 207.571 245.083 211.023 246.896 215.438L263.211 243.268C263.678 244.065 263.982 244.962 264.101 245.899C264.221 246.835 264.154 247.788 263.904 248.693C263.655 249.599 263.229 250.435 262.655 251.145C262.082 251.855 261.375 252.422 260.582 252.808Z" fill="#CCCCCC"/>
<path d="M131.87 386.227C133.79 385.742 135.589 384.804 137.139 383.481C138.69 382.158 139.956 380.481 140.846 378.568C141.737 376.655 142.231 374.553 142.295 372.409C142.358 370.266 141.988 368.134 141.212 366.162L190.909 243.993L162.48 236.202L122.569 358.74C119.612 360.378 117.31 363.14 116.099 366.501C114.889 369.863 114.853 373.591 115.999 376.979C117.146 380.367 119.395 383.18 122.32 384.884C125.245 386.589 128.643 387.066 131.87 386.227H131.87Z" fill="#FFB8B8"/>
<path d="M118.323 607.67L132.779 613.397L159.962 555.45L138.625 546.998L118.323 607.67Z" fill="#FFB8B8"/>
<path d="M155.772 639.049L110.338 621.049L116.729 601.948L144.609 612.993C149.265 614.838 153.056 618.619 155.15 623.505C157.243 628.392 157.467 633.983 155.772 639.049Z" fill="#2F2E41"/>
<path d="M152.517 574.323C151.63 574.323 150.754 574.109 149.953 573.696L133.339 565.134C131.977 564.438 130.903 563.213 130.33 561.699C129.757 560.185 129.725 558.493 130.241 556.955L177.129 415.675C177.517 414.505 178.202 413.478 179.105 412.715C180.008 411.952 181.091 411.483 182.229 411.362C183.367 411.242 184.513 411.476 185.534 412.035C186.555 412.595 187.409 413.459 187.997 414.526L212.797 459.499C213.348 460.502 213.645 461.645 213.657 462.813C213.668 463.982 213.394 465.132 212.862 466.147L157.788 571.016C157.254 572.023 156.486 572.859 155.561 573.439C154.635 574.02 153.586 574.325 152.517 574.323Z" fill="#2F2E41"/>
<path d="M208.895 189.08C225.917 189.08 239.716 174.065 239.716 155.543C239.716 137.021 225.917 122.006 208.895 122.006C191.872 122.006 178.073 137.021 178.073 155.543C178.073 174.065 191.872 189.08 208.895 189.08Z" fill="#FFB8B8"/>
<path d="M252.499 308.022L197.926 291.692L168.9 228.528C167.506 225.494 166.848 222.122 166.988 218.732C167.128 215.343 168.062 212.049 169.701 209.163C171.34 206.278 173.63 203.895 176.354 202.243C179.077 200.591 182.143 199.724 185.261 199.724H228.68C233.187 199.721 237.535 201.531 240.89 204.806C252.537 216.159 277.007 248.889 252.735 307.451L252.499 308.022Z" fill="#F46036"/>
<path d="M184.182 265.842L156.532 251.759C155.745 251.359 155.047 250.778 154.485 250.057C153.923 249.337 153.511 248.493 153.276 247.583C153.041 246.673 152.988 245.719 153.123 244.785C153.257 243.851 153.575 242.96 154.054 242.172L170.858 214.559C172.765 210.191 176.186 206.824 180.371 205.197C184.556 203.57 189.163 203.814 193.182 205.877C197.202 207.94 200.305 211.652 201.813 216.201C203.32 220.75 203.109 225.764 201.224 230.143L192.535 261.771C192.286 262.676 191.861 263.513 191.288 264.223C190.715 264.934 190.008 265.501 189.215 265.888C188.422 266.274 187.562 266.47 186.694 266.462C185.825 266.454 184.968 266.243 184.182 265.842Z" fill="#F46036"/>
<path d="M217.634 623.504H233.018L240.338 558.934L217.63 558.936L217.634 623.504Z" fill="#FFB8B8"/>
<path d="M262.69 639.046L214.338 639.049L214.337 618.721L244.007 618.72C248.962 618.72 253.714 620.861 257.217 624.673C260.721 628.485 262.689 633.655 262.69 639.046Z" fill="#2F2E41"/>
<path d="M223.443 598.899C222.06 598.901 220.718 598.384 219.644 597.435C218.57 596.486 217.83 595.164 217.548 593.69C213.126 571.019 190.158 454.891 172.232 395.074C153.993 334.215 185.055 306.495 191.467 301.556C192.15 301.031 192.692 300.319 193.039 299.491L197.697 288.34C198.18 287.189 198.957 286.214 199.936 285.529C200.914 284.845 202.052 284.481 203.215 284.481H203.253C238.175 284.708 249.915 296.686 253.342 301.826C253.847 302.592 254.193 303.468 254.357 304.393C254.52 305.319 254.496 306.272 254.287 307.187L232.191 406.38C232.054 406.995 232.023 407.632 232.1 408.259L254.084 588.362C254.189 589.228 254.135 590.108 253.925 590.95C253.715 591.793 253.353 592.582 252.86 593.271C252.366 593.96 251.752 594.535 251.052 594.963C250.353 595.391 249.582 595.663 248.784 595.763L224.153 598.854C223.917 598.884 223.68 598.899 223.443 598.899Z" fill="#2F2E41"/>
<path d="M176.508 134.448C183.552 139.73 191.911 142.541 200.465 142.504C197.414 144.806 193.94 146.361 190.284 147.062C201.657 149.717 213.411 149.789 224.811 147.273C227.345 146.831 229.79 145.917 232.039 144.572C233.159 143.891 234.136 142.961 234.904 141.843C235.673 140.724 236.217 139.442 236.5 138.08C237.258 133.371 233.886 129.093 230.381 126.21C225.016 121.863 218.83 118.868 212.27 117.442C205.71 116.015 198.941 116.193 192.453 117.963C188.216 119.155 183.971 121.168 181.219 124.87C178.467 128.573 177.652 134.28 180.274 138.093L176.508 134.448Z" fill="#2F2E41"/>
<path d="M742.275 279.917C751.285 279.917 758.589 271.97 758.589 262.166C758.589 252.363 751.285 244.415 742.275 244.415C733.265 244.415 725.962 252.363 725.962 262.166C725.962 271.97 733.265 279.917 742.275 279.917Z" fill="#CAC7FF"/>
<path d="M740.658 268.938C740.291 268.939 739.934 268.809 739.64 268.57L739.622 268.555L735.788 265.361C735.61 265.213 735.46 265.029 735.348 264.818C735.235 264.607 735.162 264.374 735.133 264.133C735.103 263.891 735.117 263.645 735.175 263.41C735.233 263.174 735.332 262.953 735.469 262.76C735.605 262.566 735.775 262.404 735.969 262.282C736.163 262.16 736.377 262.081 736.599 262.049C736.821 262.018 737.047 262.034 737.264 262.097C737.48 262.161 737.683 262.27 737.86 262.419L740.343 264.491L746.212 256.163C746.348 255.97 746.517 255.808 746.711 255.686C746.905 255.564 747.119 255.485 747.34 255.454C747.562 255.422 747.787 255.438 748.004 255.501C748.22 255.564 748.422 255.672 748.6 255.82L748.563 255.874L748.601 255.821C748.959 256.12 749.193 256.562 749.252 257.049C749.311 257.536 749.19 258.029 748.916 258.419L742.013 268.214C741.854 268.44 741.648 268.623 741.413 268.748C741.178 268.874 740.92 268.939 740.658 268.938Z" fill="white"/>
<path d="M742.275 331.804C751.285 331.804 758.589 323.857 758.589 314.053C758.589 304.25 751.285 296.302 742.275 296.302C733.265 296.302 725.962 304.25 725.962 314.053C725.962 323.857 733.265 331.804 742.275 331.804Z" fill="#CAC7FF"/>
<path d="M740.658 320.825C740.291 320.826 739.934 320.696 739.64 320.457L739.622 320.442L735.788 317.248C735.61 317.1 735.46 316.916 735.348 316.705C735.235 316.494 735.162 316.261 735.133 316.02C735.103 315.778 735.117 315.532 735.175 315.297C735.233 315.061 735.332 314.84 735.469 314.647C735.605 314.453 735.775 314.291 735.969 314.169C736.163 314.047 736.377 313.968 736.599 313.937C736.821 313.905 737.047 313.921 737.264 313.985C737.48 314.048 737.683 314.157 737.86 314.306L740.343 316.378L746.212 308.05C746.348 307.857 746.517 307.695 746.711 307.573C746.905 307.452 747.119 307.372 747.34 307.341C747.562 307.309 747.787 307.325 748.004 307.388C748.22 307.451 748.422 307.559 748.6 307.707L748.563 307.761L748.601 307.708C748.959 308.008 749.193 308.449 749.252 308.936C749.311 309.424 749.19 309.916 748.916 310.307L742.013 320.102C741.854 320.327 741.648 320.51 741.413 320.635C741.178 320.761 740.92 320.826 740.658 320.825Z" fill="white"/>
<path d="M751.06 391.884C760.069 391.884 767.373 383.937 767.373 374.133C767.373 364.33 760.069 356.382 751.06 356.382C742.05 356.382 734.746 364.33 734.746 374.133C734.746 383.937 742.05 391.884 751.06 391.884Z" fill="#CAC7FF"/>
<path d="M749.443 380.905C749.076 380.905 748.718 380.776 748.424 380.537L748.406 380.522L744.572 377.328C744.394 377.18 744.245 376.995 744.132 376.785C744.02 376.574 743.946 376.341 743.917 376.099C743.887 375.858 743.901 375.612 743.959 375.377C744.017 375.141 744.117 374.92 744.253 374.727C744.389 374.533 744.559 374.371 744.753 374.249C744.947 374.127 745.161 374.048 745.384 374.016C745.606 373.985 745.831 374.001 746.048 374.064C746.264 374.128 746.467 374.237 746.644 374.386L749.128 376.457L754.996 368.13C755.132 367.937 755.302 367.775 755.495 367.653C755.689 367.531 755.903 367.452 756.125 367.42C756.346 367.389 756.572 367.404 756.788 367.467C757.004 367.53 757.207 367.639 757.384 367.787L757.347 367.841L757.385 367.788C757.743 368.087 757.977 368.529 758.036 369.016C758.095 369.503 757.975 369.996 757.7 370.386L750.798 380.181C750.638 380.407 750.433 380.59 750.198 380.715C749.963 380.841 749.704 380.905 749.443 380.905Z" fill="white"/>
<path d="M908.369 522.338C908.199 522.338 908.093 522.333 908.056 522.331L887.802 522.333V519.084H908.129C908.6 519.102 918.201 519.397 927.048 507.717C940.232 490.309 951.059 447.214 927.767 340.772C896.448 197.644 922.57 71.1994 935.254 23.4793C935.879 21.1184 935.99 18.6316 935.58 16.2156C935.17 13.7996 934.249 11.5205 932.89 9.55836C931.531 7.59621 929.772 6.00477 927.75 4.90982C925.729 3.81487 923.501 3.24641 921.243 3.24933H618.77C616.471 3.25268 614.204 3.84596 612.155 4.98104C610.105 6.11611 608.331 7.76099 606.975 9.78215C601.602 17.8246 594.228 33.2749 589.614 61.2118L586.675 60.6374C591.389 32.0937 599.003 16.1888 604.56 7.87187C606.193 5.43646 608.331 3.45442 610.8 2.08667C613.269 0.718909 616 0.00398425 618.77 -5.21917e-05H921.244C923.965 -0.00290143 926.649 0.682775 929.084 2.0028C931.52 3.32284 933.64 5.24105 935.277 7.60591C936.914 9.97076 938.024 12.7174 938.517 15.629C939.011 18.5405 938.876 21.5371 938.123 24.382C925.504 71.8547 899.518 197.644 930.673 340.02C954.292 447.959 942.937 491.987 929.253 509.915C920.227 521.739 910.282 522.338 908.369 522.338Z" fill="#E6E6E6"/>
<path d="M853.869 581.639C853.7 581.639 853.593 581.634 853.556 581.632L833.303 581.634V578.385H853.629C854.103 578.401 863.702 578.698 872.549 567.018C885.733 549.609 896.559 506.515 873.268 400.072C841.949 256.945 868.07 130.5 880.754 82.7801C881.379 80.4191 881.491 77.9324 881.081 75.5164C880.671 73.1004 879.75 70.8213 878.391 68.8592C877.032 66.897 875.272 65.3056 873.251 64.2106C871.23 63.1157 869.002 62.5472 866.744 62.5501H564.271C561.971 62.5535 559.705 63.1467 557.655 64.2818C555.606 65.4169 553.831 67.0618 552.476 69.0829C547.102 77.1254 539.728 92.5757 535.114 120.513L532.175 119.938C536.889 91.3945 544.503 75.4896 550.06 67.1726C551.693 64.7372 553.831 62.7552 556.3 61.3874C558.769 60.0197 561.5 59.3048 564.271 59.3007H866.744C869.465 59.2979 872.149 59.9836 874.585 61.3036C877.02 62.6236 879.141 64.5419 880.778 66.9067C882.415 69.2716 883.524 72.0183 884.018 74.9298C884.512 77.8413 884.377 80.8379 883.623 83.6828C871.004 131.155 845.018 256.944 876.173 399.32C899.792 507.26 888.437 551.288 874.754 569.216C865.728 581.04 855.783 581.639 853.869 581.639Z" fill="white"/>
<path d="M821.673 458.627C790.513 316.252 816.502 190.453 829.127 142.99C829.878 140.145 830.012 137.149 829.518 134.238C829.023 131.327 827.914 128.581 826.277 126.216C824.64 123.851 822.521 121.933 820.087 120.611C817.652 119.29 814.969 118.603 812.248 118.603H509.768C506.999 118.606 504.269 119.32 501.801 120.686C499.332 122.053 497.195 124.034 495.562 126.468C483.352 144.738 458.016 205.323 486.314 372.959C501.448 462.641 501.222 523.786 496.278 564.067C493.504 586.747 489.225 602.805 485.347 613.633L484.934 614.78C484.117 616.971 483.691 619.311 483.679 621.675C483.65 624.345 484.142 626.991 485.122 629.439C486.102 631.886 487.547 634.081 489.363 635.876C490.547 637.083 491.888 638.095 493.341 638.88C494.548 639.55 495.825 640.059 497.144 640.396C498.487 640.752 499.865 640.931 501.247 640.928H799.059C799.097 640.928 799.197 640.942 799.373 640.942C801.28 640.942 811.232 640.341 820.255 628.516C833.933 610.588 845.29 566.566 821.673 458.627ZM818.046 626.318C809.199 638.006 799.599 637.706 799.135 637.692H501.247C498.862 637.691 496.514 637.055 494.407 635.839C492.301 634.622 490.5 632.863 489.162 630.714C487.986 628.857 487.196 626.743 486.847 624.519C486.498 622.295 486.599 620.015 487.142 617.838C487.284 617.206 487.469 616.585 487.694 615.981C492.124 603.596 495.407 590.761 497.495 577.667C504.573 535.679 505.89 470.889 489.251 372.372C461.166 205.978 486.001 146.308 497.972 128.38C499.33 126.361 501.105 124.719 503.154 123.585C505.204 122.451 507.469 121.858 509.768 121.853H812.248C814.505 121.851 816.731 122.42 818.751 123.515C820.771 124.61 822.529 126.201 823.888 128.162C825.246 130.123 826.166 132.4 826.577 134.815C826.987 137.23 826.876 139.715 826.253 142.075C813.566 189.797 787.452 316.252 818.774 459.378C842.065 565.815 831.235 608.908 818.046 626.318Z" fill="#3F3D56"/>
<path d="M677.974 273.636H522.133C518.965 273.636 515.927 272.267 513.687 269.83C511.446 267.392 510.188 264.086 510.188 260.639C510.188 257.192 511.446 253.886 513.687 251.448C515.927 249.011 518.965 247.642 522.133 247.642H677.974C681.142 247.642 684.18 249.011 686.42 251.448C688.66 253.886 689.919 257.192 689.919 260.639C689.919 264.086 688.66 267.392 686.42 269.83C684.18 272.267 681.142 273.636 677.974 273.636Z" fill="white"/>
<path d="M677.974 329.62H522.133C518.965 329.62 515.927 328.25 513.687 325.813C511.446 323.376 510.188 320.07 510.188 316.622C510.188 313.175 511.446 309.869 513.687 307.432C515.927 304.994 518.965 303.625 522.133 303.625H677.974C681.142 303.625 684.18 304.994 686.42 307.432C688.66 309.869 689.919 313.175 689.919 316.622C689.919 320.07 688.66 323.376 686.42 325.813C684.18 328.25 681.142 329.62 677.974 329.62Z" fill="white"/>
<path d="M690.523 386.969H534.682C531.514 386.969 528.476 385.599 526.235 383.162C523.995 380.724 522.737 377.418 522.737 373.971C522.737 370.524 523.995 367.218 526.235 364.781C528.476 362.343 531.514 360.974 534.682 360.974H690.523C693.691 360.974 696.729 362.343 698.969 364.781C701.209 367.218 702.468 370.524 702.468 373.971C702.468 377.418 701.209 380.724 698.969 383.162C696.729 385.599 693.691 386.969 690.523 386.969Z" fill="white"/>
<path d="M699.307 447.049H543.466C540.298 447.049 537.26 445.679 535.02 443.242C532.78 440.804 531.521 437.498 531.521 434.051C531.521 430.604 532.78 427.298 535.02 424.861C537.26 422.423 540.298 421.054 543.466 421.054H699.307C702.475 421.054 705.513 422.423 707.753 424.861C709.993 427.298 711.252 430.604 711.252 434.051C711.252 437.498 709.993 440.804 707.753 443.242C705.513 445.679 702.475 447.049 699.307 447.049Z" fill="white"/>
<path d="M699.373 172.716H587.388C585.818 172.718 584.263 172.383 582.813 171.731C581.362 171.078 580.044 170.121 578.933 168.914C577.823 167.707 576.942 166.274 576.341 164.696C575.74 163.118 575.43 161.427 575.43 159.719C575.43 158.011 575.74 156.32 576.341 154.742C576.942 153.164 577.823 151.731 578.933 150.524C580.044 149.317 581.362 148.36 582.813 147.707C584.263 147.055 585.818 146.72 587.388 146.722H699.373C702.541 146.722 705.579 148.091 707.819 150.528C710.06 152.966 711.318 156.272 711.318 159.719C711.318 163.166 710.06 166.472 707.819 168.91C705.579 171.347 702.541 172.716 699.373 172.716Z" fill="#CAC7FF"/>
<path d="M761.099 451.802C770.108 451.802 777.412 443.855 777.412 434.051C777.412 424.247 770.108 416.3 761.099 416.3C752.089 416.3 744.785 424.247 744.785 434.051C744.785 443.855 752.089 451.802 761.099 451.802Z" fill="white"/>
<path d="M706.836 505.763H550.996C547.828 505.763 544.789 504.393 542.549 501.956C540.309 499.518 539.051 496.213 539.051 492.765C539.051 489.318 540.309 486.012 542.549 483.575C544.789 481.137 547.828 479.768 550.996 479.768H706.836C710.004 479.768 713.043 481.137 715.283 483.575C717.523 486.012 718.781 489.318 718.781 492.765C718.781 496.213 717.523 499.518 715.283 501.956C713.043 504.393 710.004 505.763 706.836 505.763Z" fill="white"/>
<path d="M768.628 510.516C777.638 510.516 784.942 502.569 784.942 492.765C784.942 482.962 777.638 475.015 768.628 475.015C759.618 475.015 752.314 482.962 752.314 492.765C752.314 502.569 759.618 510.516 768.628 510.516Z" fill="white"/>
</g>
<defs>
<clipPath id="clip0_2_314">
<rect width="1065" height="641" fill="white"/>
</clipPath>
</defs>
</svg>
