<svg width="100" height="100" viewBox="0 0 120 120" fill="none" xmlns="http://www.w3.org/2000/svg">
<g opacity="0.5">
<path opacity="0.5" d="M60 120C93.1371 120 120 93.1371 120 60C120 26.8629 93.1371 0 60 0C26.8629 0 0 26.8629 0 60C0 93.1371 26.8629 120 60 120Z" fill="url(#paint0_linear_516_426)"/>
</g>
<path d="M117.352 59.6165C117.352 91.2263 91.7268 116.851 60.1169 116.851C28.5071 116.851 2.88226 91.2263 2.88226 59.6165C2.88226 28.0067 28.5071 2.38184 60.1169 2.38184C91.7268 2.38184 117.352 28.0067 117.352 59.6165Z" fill="#CAC7FF" stroke="white" stroke-width="3"/>
<path d="M60.1719 118.584C71.6487 118.602 82.877 115.242 92.4567 108.922C90.2923 97.0938 82.0556 96.4199 82.0556 96.4199H36.6344C36.6344 96.4199 28.8619 97.0577 26.4344 107.939C36.311 114.886 48.0966 118.605 60.1719 118.584Z" fill="#F46036"/>
<path d="M59.5479 86.7285C75.2049 86.7285 87.8974 74.0359 87.8974 58.3789C87.8974 42.7218 75.2049 30.0293 59.5479 30.0293C43.8908 30.0293 31.1983 42.7218 31.1983 58.3789C31.1983 74.0359 43.8908 86.7285 59.5479 86.7285Z" fill="#333333"/>
<path opacity="0.1" d="M50.3983 81.9922H68.5633V96.5246C68.5633 98.9328 67.6069 101.242 65.9043 102.946C64.2017 104.649 61.8925 105.606 59.4842 105.607C57.0754 105.607 54.7652 104.65 53.0619 102.947C51.3586 101.244 50.4017 98.9334 50.4017 96.5246V81.9922H50.3983Z" fill="black"/>
<path d="M50.9742 81.3184H67.9943C68.147 81.3184 68.2935 81.379 68.4015 81.487C68.5095 81.5951 68.5702 81.7415 68.5702 81.8943V95.8507C68.5704 97.0439 68.3356 98.2254 67.879 99.3278C67.4225 100.43 66.7532 101.432 65.9094 102.275C65.0656 103.119 64.0639 103.788 62.9614 104.244C61.859 104.701 60.6774 104.935 59.4843 104.935C57.0754 104.935 54.7652 103.978 53.0619 102.275C51.3586 100.571 50.4017 98.2613 50.4017 95.8525V81.8943C50.4017 81.7421 50.4619 81.5962 50.5692 81.4883C50.6765 81.3803 50.8221 81.3193 50.9742 81.3184Z" fill="#FDB797"/>
<path opacity="0.1" d="M50.431 88.8511C56.2854 91.0384 62.7297 91.056 68.596 88.901V86.666H50.431V88.8511Z" fill="black"/>
<path d="M59.5479 90.0667C73.9279 90.0667 85.5851 78.4094 85.5851 64.0294C85.5851 49.6495 73.9279 37.9922 59.5479 37.9922C45.1679 37.9922 33.5106 49.6495 33.5106 64.0294C33.5106 78.4094 45.1679 90.0667 59.5479 90.0667Z" fill="#FDB797"/>
<path opacity="0.1" d="M41.0012 40.3465C41.0012 40.3465 51.9748 62.6204 82.929 49.6852L75.7221 38.3849L62.9467 33.7998L41.0012 40.3465Z" fill="black"/>
<path d="M41.0012 40.0199C41.0012 40.0199 51.9748 62.2938 82.929 49.3551L75.7221 38.0548L62.9467 33.4697L41.0012 40.0199Z" fill="#333333"/>
<path d="M40.9049 38.5103C41.6448 36.2199 42.9236 34.1404 44.6338 32.4467C49.7553 27.3837 58.1519 26.316 62.4585 20.543C63.49 22.1453 62.6923 24.6089 60.9112 25.2966C65.0373 25.269 69.8183 24.908 72.1513 21.5143C72.7279 22.8565 72.9116 24.3348 72.6813 25.7774C72.4509 27.2199 71.8158 28.5674 70.8499 29.6633C74.5066 29.8352 78.4143 32.3109 78.6447 35.9642C78.8029 38.3986 77.2693 40.7023 75.2768 42.0983C73.2842 43.4943 70.8567 44.1355 68.4757 44.6599C61.5232 46.1951 36.3679 52.6198 40.9049 38.5103Z" fill="#333333"/>
<path d="M33.5003 68.5481C34.8381 68.5481 35.9226 66.5145 35.9226 64.006C35.9226 61.4974 34.8381 59.4639 33.5003 59.4639C32.1625 59.4639 31.0779 61.4974 31.0779 64.006C31.0779 66.5145 32.1625 68.5481 33.5003 68.5481Z" fill="#FDB797"/>
<path d="M85.5817 68.5481C86.9195 68.5481 88.004 66.5145 88.004 64.006C88.004 61.4974 86.9195 59.4639 85.5817 59.4639C84.2438 59.4639 83.1593 61.4974 83.1593 64.006C83.1593 66.5145 84.2438 68.5481 85.5817 68.5481Z" fill="#FDB797"/>
<defs>
<linearGradient id="paint0_linear_516_426" x1="60" y1="120" x2="60" y2="0" gradientUnits="userSpaceOnUse">
<stop stop-color="#808080" stop-opacity="0.25"/>
<stop offset="0.54" stop-color="#808080" stop-opacity="0.12"/>
<stop offset="1" stop-color="#808080" stop-opacity="0.1"/>
</linearGradient>
</defs>
</svg>
